<?xml version="1.0" standalone="no"?>
<!DOCTYPE svg PUBLIC "-//W3C//DTD SVG 20010904//EN"
 "http://www.w3.org/TR/2001/REC-SVG-20010904/DTD/svg10.dtd">
<svg version="1.0" xmlns="http://www.w3.org/2000/svg"
 width="512.000000pt" height="512.000000pt" viewBox="0 0 512.000000 512.000000"
 preserveAspectRatio="xMidYMid meet">

<g transform="translate(0.000000,512.000000) scale(0.100000,-0.100000)"
fill="#000000" stroke="none">
<path d="M3344 5101 c-114 -31 -212 -88 -286 -165 -45 -47 -178 -215 -178
-225 0 -10 918 -751 931 -751 15 0 195 241 220 295 56 120 74 261 48 387 -16
79 -81 206 -138 269 -151 169 -392 246 -597 190z"/>
<path d="M1556 3065 c-659 -823 -1199 -1502 -1201 -1508 -3 -9 749 -621 909
-740 l24 -17 1077 1347 c593 742 1083 1354 1091 1362 11 12 21 8 66 -27 29
-22 68 -54 86 -69 l33 -28 -357 -445 c-196 -245 -362 -457 -370 -472 -20 -38
-18 -117 5 -158 10 -19 36 -48 59 -64 51 -36 129 -41 182 -11 38 22 1089 1326
1112 1380 18 41 15 113 -5 152 -26 49 -80 85 -136 91 -91 8 -115 -8 -243 -162
l-24 -28 -514 413 c-283 227 -534 427 -556 446 l-42 33 -1196 -1495z"/>
<path d="M226 1293 c-50 -220 -206 -989 -206 -1014 0 -40 39 -79 79 -79 18 0
215 84 488 209 549 250 534 243 531 253 -4 10 -860 698 -869 698 -4 0 -14 -30
-23 -67z"/>
<path d="M3400 724 c-8 -2 -589 -89 -1290 -194 -826 -124 -1287 -197 -1310
-208 -78 -38 -90 -134 -25 -199 26 -26 41 -33 73 -33 22 0 519 72 1105 160
585 88 1071 160 1080 160 9 0 28 -11 43 -23 38 -33 35 -71 -11 -145 -34 -56
-37 -66 -33 -117 5 -63 40 -109 88 -120 21 -5 1733 205 1878 230 53 9 93 53
99 106 10 84 -41 139 -126 139 -22 0 -336 -38 -696 -85 -361 -47 -676 -85
-700 -85 -35 0 -48 5 -64 26 -31 39 -26 71 21 144 50 79 58 130 29 178 -36 56
-96 81 -161 66z"/>
</g>
</svg>
