<?xml version="1.0" standalone="no"?>
<!DOCTYPE svg PUBLIC "-//W3C//DTD SVG 20010904//EN"
 "http://www.w3.org/TR/2001/REC-SVG-20010904/DTD/svg10.dtd">
<svg version="1.0" xmlns="http://www.w3.org/2000/svg"
 width="512.000000pt" height="512.000000pt" viewBox="0 0 512.000000 512.000000"
 preserveAspectRatio="xMidYMid meet">

<g transform="translate(0.000000,512.000000) scale(0.100000,-0.100000)"
fill="#000000" stroke="none">
<path d="M3510 5096 c-227 -40 -419 -123 -602 -258 -76 -57 -317 -296 -908
-903 -197 -201 -276 -306 -350 -458 -226 -471 -169 -1041 146 -1462 95 -128
307 -315 355 -315 35 0 271 259 371 408 62 92 61 115 -3 157 -157 103 -269
263 -305 435 -20 97 -14 240 15 331 24 75 92 184 171 274 89 101 878 907 943
963 127 109 272 157 452 149 177 -7 314 -67 437 -191 220 -223 258 -563 91
-825 -21 -33 -141 -166 -266 -295 -125 -129 -227 -242 -227 -250 0 -9 11 -53
24 -98 46 -160 60 -269 60 -483 0 -121 -4 -231 -12 -278 -8 -43 -12 -81 -9
-83 8 -8 899 914 956 990 113 151 199 345 243 549 29 135 31 397 5 531 -111
557 -518 975 -1073 1101 -96 22 -414 29 -514 11z"/>
<path d="M2820 3304 c-119 -115 -186 -200 -245 -307 -45 -82 -42 -106 18 -143
146 -92 260 -244 302 -405 23 -84 23 -235 1 -318 -22 -87 -74 -182 -153 -280
-95 -119 -954 -993 -1016 -1034 -70 -46 -100 -61 -177 -87 -90 -30 -241 -37
-340 -16 -188 39 -366 177 -449 346 -60 125 -74 191 -69 330 10 229 50 299
358 617 163 168 230 243 230 259 0 13 -11 67 -24 121 -14 54 -30 132 -37 173
-15 83 -19 461 -6 575 l7 70 -420 -425 c-512 -517 -556 -568 -654 -768 -193
-391 -193 -857 2 -1247 189 -379 525 -637 953 -731 67 -15 125 -19 284 -19
182 1 209 3 305 27 184 46 334 113 480 211 133 90 953 919 1150 1162 189 233
283 511 283 835 0 300 -71 539 -232 780 -67 101 -218 261 -311 330 -100 74
-106 73 -240 -56z"/>
</g>
</svg>
