<?xml version="1.0" standalone="no"?>
<!DOCTYPE svg PUBLIC "-//W3C//DTD SVG 20010904//EN"
 "http://www.w3.org/TR/2001/REC-SVG-20010904/DTD/svg10.dtd">
<svg version="1.0" xmlns="http://www.w3.org/2000/svg"
 width="512.000000pt" height="512.000000pt" viewBox="0 0 512.000000 512.000000"
 preserveAspectRatio="xMidYMid meet">

<g transform="translate(0.000000,512.000000) scale(0.100000,-0.100000)"
fill="#ffffff" stroke="none">
<path d="M2330 5110 c-892 -87 -1667 -619 -2060 -1415 -126 -254 -196 -474
-242 -755 -31 -195 -31 -565 0 -760 46 -281 116 -501 242 -755 250 -505 650
-905 1155 -1155 254 -126 474 -196 755 -242 195 -31 565 -31 760 0 281 46 501
116 755 242 505 250 905 650 1155 1155 93 187 136 302 185 486 63 240 78 371
78 649 0 278 -15 409 -78 649 -49 184 -92 299 -185 486 -250 505 -650 905
-1155 1155 -254 126 -479 197 -750 240 -147 23 -475 34 -615 20z m405 -510
c193 -18 353 -54 525 -118 284 -106 534 -266 745 -477 566 -566 752 -1405 477
-2145 -106 -284 -266 -534 -477 -745 -566 -566 -1405 -752 -2145 -477 -499
186 -897 544 -1133 1017 -286 576 -286 1234 0 1810 376 756 1183 1212 2008
1135z"/>
<path d="M2950 3459 c-487 -209 -890 -386 -897 -392 -9 -9 -722 -1655 -764
-1764 -7 -20 -6 -21 14 -14 109 42 1755 755 1764 764 13 14 778 1788 770 1787
-1 0 -400 -172 -887 -381z m-270 -677 c179 -89 178 -354 -3 -446 -153 -78
-330 6 -366 174 -28 131 53 260 187 296 60 17 113 10 182 -24z"/>
</g>
</svg>
