<?xml version="1.0" encoding="UTF-8"?>
<svg version="1.1" xmlns="http://www.w3.org/2000/svg" width="500" height="706">
<path d="M0 0 C165 0 330 0 500 0 C500 7.18896236 499.97492806 14.05359022 499.31562901 21.15638447 C499.24164016 22.00050165 499.16765131 22.84461883 499.09142038 23.71431533 C498.84472972 26.51405899 498.59053945 29.31306765 498.33631897 32.11213684 C498.15508879 34.15099114 497.97432442 36.18988689 497.7939834 38.22882003 C497.29901429 43.80960269 496.79744743 49.38977539 496.2947675 54.96986806 C495.75306895 60.99608977 495.21751904 67.0228583 494.68119812 73.04956055 C493.75163638 83.4854885 492.81819398 93.92106416 491.88194466 104.35639381 C490.89998331 115.30128756 489.92007233 126.24636153 488.94293022 137.19168663 C488.88207609 137.87331484 488.82122195 138.55494306 488.75852376 139.25722667 C488.51149292 142.02429576 488.2644769 144.79136617 488.01748043 147.55843833 C485.76817706 172.7570534 483.51373441 197.95520593 481.25610352 223.15307617 C479.12536682 246.93466892 476.99791813 270.7165527 474.87426758 294.4987793 C474.80881218 295.2317891 474.74335678 295.96479891 474.67591789 296.72002114 C474.4778953 298.93760182 474.27987394 301.15518262 474.08185297 303.37276345 C473.88447018 305.58319737 473.68708707 307.79363126 473.48970282 310.00406505 C473.35851013 311.47324388 473.22731833 312.94242279 473.09612742 314.41160178 C471.00712083 337.80562148 468.91517588 361.19937847 466.82276391 384.59309379 C466.21035446 391.44016676 465.59812199 398.2872555 464.986274 405.13437867 C463.6998738 419.53018853 462.41259935 433.92591886 461.12203056 448.3213558 C460.58834557 454.27448327 460.05523806 460.22766089 459.5237236 466.18098259 C459.03738413 471.62804327 458.54932767 477.07494724 458.0598821 482.52172967 C457.88290881 484.49450688 457.70656141 486.46734035 457.53089548 488.4402344 C457.29237719 491.11791998 457.05158326 493.79539153 456.81021214 496.47282124 C456.74224795 497.24194427 456.67428376 498.01106731 456.60426006 498.80349711 C456.20246561 503.22838405 455.665357 507.60677247 455 512 C453.66486862 512.36773781 453.66486862 512.36773781 452.30276489 512.74290466 C407.89846339 524.97394661 363.50194787 537.23254324 319.125 549.5625 C317.21421326 550.09333368 315.30342632 550.62416662 313.39263916 551.15499878 C309.71138546 552.17768111 306.03031302 553.20101262 302.34933472 554.22468567 C298.88730849 555.18725095 295.42448698 556.14687023 291.96096802 557.10404968 C284.7042084 559.11234673 277.4592606 561.14332289 270.24511719 563.30029297 C269.09582733 563.63906967 267.94653748 563.97784637 266.76242065 564.32688904 C264.72745498 564.92985151 262.69648819 565.54661935 260.67141724 566.18202209 C248.41434557 569.78992956 237.38437199 565.68154506 225.5 562.3125 C223.74194733 561.8208113 221.98368117 561.3298854 220.22521973 560.83966064 C216.45387793 559.78661424 212.68402876 558.72843801 208.9152832 557.6661377 C202.94250581 555.98261015 196.96665004 554.31020737 190.99023438 552.63964844 C183.67928056 550.5953253 176.36906785 548.54839114 169.05974579 546.49824142 C155.26426774 542.62933166 141.46201162 538.78516429 127.65625 534.953125 C126.63302643 534.66910324 125.60980286 534.38508148 124.55557251 534.092453 C119.50100745 532.68955914 114.44633391 531.28705664 109.39160156 529.88476562 C100.88029828 527.52338402 92.36987546 525.1588332 83.85942078 522.79439545 C79.86529998 521.68474409 75.87112557 520.57528576 71.87695312 519.46582031 C70.41284151 519.05912377 68.94873018 518.65242618 67.48461914 518.24572754 C66.39765244 517.94379234 66.39765244 517.94379234 65.28872681 517.63575745 C61.1449585 516.48471069 57.00119019 515.33366394 52.85742188 514.18261719 C52.2040425 514.00112292 51.55066313 513.81962865 50.87748438 513.63263455 C48.91832292 513.08842303 46.95916146 512.54421152 45 512 C43.52537259 499.22017311 42.26696981 486.43125938 41.12704468 473.61758423 C40.94811324 471.62243332 40.76901524 469.62729733 40.5897671 467.63217485 C40.10227433 462.20060709 39.61717849 456.76882764 39.1325202 451.33700633 C38.60768545 445.4596141 38.08062047 439.58242177 37.55387878 433.7052002 C36.46483783 421.54935092 35.37832929 409.39327634 34.2926101 397.23712998 C34.23375495 396.57816466 34.17489979 395.91919934 34.11426115 395.24026537 C34.02579025 394.2497017 34.02579025 394.2497017 33.93553206 393.23912664 C33.33947235 386.56571046 32.742891 379.89234094 32.14623929 373.21897767 C30.10147515 350.34891005 28.05744454 327.47877708 26.01622581 304.60839272 C25.95299486 303.89994498 25.8897639 303.19149724 25.82461685 302.46158139 C25.56840411 299.59093901 25.31219382 296.72029642 25.05598369 293.84965381 C24.86316964 291.68931992 24.67035442 289.52898612 24.47753906 287.36865234 C24.4138266 286.65479923 24.35011414 285.94094611 24.28447099 285.20546108 C22.21612212 262.03141471 20.14332125 238.85776958 18.06783587 215.68436134 C15.87019692 191.1468956 13.67640574 166.6090889 11.4870764 142.07088029 C11.24671447 139.37703924 11.00633734 136.68319953 10.76594925 133.98936081 C10.67717554 132.99451214 10.67717554 132.99451214 10.58660843 131.97956551 C9.69427451 121.98049817 8.79902866 111.98169436 7.90229416 101.98302078 C6.88274242 90.61468295 5.86683518 79.24602682 4.85567258 67.87693961 C4.33987669 62.07877027 3.82237071 56.28076711 3.30022621 50.48316574 C2.82201831 45.17294276 2.3487436 39.86230367 1.87934084 34.55129533 C1.70898147 32.63356651 1.53683886 30.71599506 1.36269991 28.79860575 C1.12551855 26.18410433 0.8949647 23.56909553 0.66596031 20.95386696 C0.59754515 20.21724187 0.52912999 19.48061679 0.45864165 18.72166973 C-0.08172535 12.4161193 0 6.40807217 0 0 Z " fill="#264DE4" transform="translate(0,138)"/>
<path d="M0 0 C103.29 0 206.58 0 313 0 C313 13.78345653 313 13.78345653 312.3449707 20.45996094 C312.23980086 21.60247314 312.23980086 21.60247314 312.13250637 22.76806641 C311.90210512 25.2573496 311.66397834 27.74582678 311.42578125 30.234375 C311.25976796 32.01234294 311.09427322 33.79035936 310.92926025 35.56842041 C310.57858646 39.33660145 310.22461648 43.10445178 309.86795044 46.87207031 C309.30376009 52.83343719 308.74766978 58.79554249 308.19311523 64.7578125 C307.63705259 70.7333683 307.0807826 76.70890307 306.52198792 82.6842041 C305.17203494 97.12016473 303.84648681 111.55800059 302.5625 126 C302.42613632 127.53049988 302.42613632 127.53049988 302.28701782 129.09191895 C300.29645674 151.45464541 298.35290815 173.82154716 296.40052605 196.18763065 C295.7053602 204.15047018 295.00917817 212.1132204 294.3125 220.07592773 C294.02143365 223.40335467 293.73038976 226.73078358 293.43936539 230.05821419 C293.2484165 232.24140682 293.05744522 234.42459749 292.86645126 236.60778618 C291.81761374 248.59900793 290.77444228 260.59066672 289.74734497 272.58377075 C289.291735 277.90177439 288.82987611 283.21922861 288.3671875 288.53662109 C288.16645911 290.85947313 287.9683154 293.1825502 287.77294922 295.50585938 C287.51269262 298.59956219 287.24381421 301.69239304 286.97265625 304.78515625 C286.90220596 305.6518544 286.83175568 306.51855255 286.75917053 307.41151428 C285.98214478 316.0512522 285.98214478 316.0512522 284 320 C281.61181641 321.22851562 281.61181641 321.22851562 278.6015625 321.90625 C277.49208252 322.17203857 276.38260254 322.43782715 275.23950195 322.71166992 C274.04671631 322.97181885 272.85393066 323.23196777 271.625 323.5 C269.15157391 324.08660717 266.67891991 324.67647895 264.20703125 325.26953125 C262.36939209 325.70193115 262.36939209 325.70193115 260.49462891 326.14306641 C255.70953378 327.316441 251.01414798 328.71981455 246.3125 330.1875 C240.57325611 331.95730079 234.83999194 333.59696593 229 335 C222.92988899 336.46857525 216.97140215 338.17260842 211 340 C203.71806829 342.22630107 196.42606577 344.20087084 189.02734375 345.99609375 C183.00014095 347.47395365 177.03273923 349.17452576 171.05859375 350.8515625 C170.03415161 351.13821777 170.03415161 351.13821777 168.98901367 351.43066406 C167.07404906 351.97880417 165.16949886 352.56293654 163.265625 353.1484375 C153.3781437 355.726752 143.45057275 351.48384174 134.05078125 348.54296875 C129.72771683 347.19846725 125.40208241 346.05703499 121 345 C114.92989596 343.53142644 108.97137123 341.82747474 103 340 C97.11098949 338.19872753 91.23636389 336.5094116 85.25 335.0625 C77.55079702 333.19766792 69.97953837 330.97104481 62.38525391 328.72045898 C54.01269598 326.25587588 45.59352653 324.01344947 37.13452148 321.86572266 C36.22645752 321.6341748 35.31839355 321.40262695 34.3828125 321.1640625 C33.58246582 320.96248535 32.78211914 320.7609082 31.95751953 320.55322266 C30 320 30 320 28 319 C27.60274261 316.54983551 27.338759 314.189796 27.14624023 311.72070312 C27.07927948 310.95782486 27.01231873 310.19494659 26.94332886 309.40895081 C26.72259612 306.86707706 26.51551418 304.32428253 26.30859375 301.78125 C26.15766961 300.00729979 26.00597057 298.23341535 25.85353088 296.45959473 C25.53441096 292.72400782 25.2214407 288.98797572 24.91333008 285.25146484 C24.52229957 280.50951588 24.12148433 275.7684685 23.71656704 271.02768707 C23.32732226 266.46664857 22.94260844 261.90523141 22.55859375 257.34375 C22.45087049 256.0686129 22.45087049 256.0686129 22.34097099 254.76771545 C22.13304843 252.29520545 21.92824349 249.82245582 21.72436523 247.34960938 C21.66564743 246.65489029 21.60692963 245.9601712 21.5464325 245.24440002 C20.88761633 237.1678896 20.47625928 229.0964078 20 221 C40.79 221 61.58 221 83 221 C83.99 230.8690625 83.99 230.8690625 85 240.9375 C85.31324219 244.02532837 85.31324219 244.02532837 85.6328125 247.17553711 C85.79722447 248.83443806 85.96130826 250.49337158 86.125 252.15234375 C86.21136719 252.99156372 86.29773438 253.83078369 86.38671875 254.69543457 C86.92034114 260.15791732 87.07727352 265.51116514 87 271 C87.62261719 271.07476563 88.24523437 271.14953125 88.88671875 271.2265625 C96.57536128 272.32034428 103.84027663 274.28423922 111.28051758 276.46630859 C119.88769756 278.98974447 128.54004013 281.32533655 137.20556641 283.6394043 C138.24890137 283.91824463 139.29223633 284.19708496 140.3671875 284.484375 C141.35557617 284.74412109 142.34396484 285.00386719 143.36230469 285.27148438 C145.47646877 285.85540381 147.5615898 286.54403774 149.6328125 287.265625 C157.30899873 288.93978163 165.10185309 286.70483296 172.5625 284.75 C173.42746094 284.52892578 174.29242188 284.30785156 175.18359375 284.08007812 C181.34548852 282.48539421 187.4490545 280.72575271 193.54052734 278.88256836 C200.04825729 276.93331544 206.62399759 275.29399212 213.2265625 273.69921875 C214.41958984 273.40917969 214.41958984 273.40917969 215.63671875 273.11328125 C216.33498779 272.94610596 217.03325684 272.77893066 217.75268555 272.60668945 C220.54295014 271.85342411 223.26123839 270.92144554 226 270 C226.07072723 269.20645615 226.14145447 268.41291229 226.21432495 267.59532166 C226.88738739 260.05031532 227.56362941 252.50560343 228.24328423 244.96118832 C228.59244048 241.08422023 228.94044375 237.20715642 229.28564453 233.32983398 C229.61995432 229.57535215 229.95751127 225.82117416 230.29715347 222.0671711 C230.42502385 220.64784297 230.5517997 219.22841572 230.67736435 217.80888176 C230.85590229 215.79279115 231.03863785 213.77711617 231.22216797 211.76147461 C231.3243161 210.62230087 231.42646423 209.48312714 231.53170776 208.30943298 C232.23270364 201.85855783 233.14240933 195.43193001 234 189 C162.39 189 90.78 189 17 189 C14.69240217 170.5392174 14.69240217 170.5392174 14.1484375 163.9140625 C14.08467926 163.16136078 14.02092102 162.40865906 13.95523071 161.63314819 C13.82431004 160.07604425 13.69500987 158.51880315 13.56738281 156.96142578 C13.37337741 154.60529424 13.17132391 152.24993989 12.96875 149.89453125 C12.84066528 148.35941502 12.71304443 146.82426 12.5859375 145.2890625 C12.52659027 144.60341217 12.46724304 143.91776184 12.40609741 143.21133423 C11.96844261 137.75483213 12 132.52750937 12 127 C87.24 127 162.48 127 240 127 C240 122.38 240 117.76 240 113 C240.23242192 109.05448044 240.49815238 105.13780725 240.83984375 101.203125 C240.92625626 100.16226746 241.01266876 99.12140991 241.10169983 98.04901123 C241.28302086 95.88107125 241.46715182 93.7133645 241.65405273 91.54589844 C241.94041609 88.21609192 242.21591734 84.88550592 242.49023438 81.5546875 C242.66863683 79.43744648 242.84765039 77.32025685 243.02734375 75.203125 C243.1508445 73.70957489 243.1508445 73.70957489 243.27684021 72.18585205 C243.35684769 71.2701947 243.43685516 70.35453735 243.51928711 69.41113281 C243.58812607 68.60508606 243.65696503 67.79903931 243.72789001 66.96856689 C244 65 244 65 245 63 C243.76917977 63.00092179 242.53835955 63.00184359 241.27024174 63.00279331 C212.08333052 63.02442958 182.89642005 63.04092969 153.70950273 63.05106533 C150.12070688 63.05231611 146.53191106 63.05361042 142.94311523 63.05493164 C142.22862061 63.05519395 141.51412599 63.05545626 140.77798002 63.05572652 C129.19387082 63.06008331 117.60976655 63.0679709 106.02566028 63.0771528 C94.14809542 63.0864891 82.27053316 63.09205556 70.39296478 63.09408849 C63.71782379 63.09534006 57.04269266 63.09848476 50.36755562 63.10573006 C44.0927171 63.11248609 37.81789449 63.11461782 31.54305267 63.11310768 C29.23267722 63.1133842 26.92230126 63.11539178 24.61192894 63.11920547 C21.47247226 63.12413621 18.33307669 63.12300059 15.19361877 63.12025452 C14.26659497 63.12316736 13.33957117 63.1260802 12.38445574 63.12908131 C6.11412121 63.11412121 6.11412121 63.11412121 5 62 C4.75897981 60.25064955 4.58056609 58.4926271 4.42749023 56.73339844 C4.32746201 55.60842957 4.22743378 54.48346069 4.12437439 53.32440186 C3.96806297 51.48546356 3.96806297 51.48546356 3.80859375 49.609375 C3.69902847 48.35747375 3.5894632 47.10557251 3.47657776 45.81573486 C3.24502275 43.15937996 3.01519495 40.50294421 2.78833008 37.84619141 C2.49810787 34.44854464 2.20207401 31.0514373 1.90394497 27.65447617 C1.61970271 24.41048844 1.33919525 21.16617937 1.05859375 17.921875 C0.95236191 16.70401306 0.84613007 15.48615112 0.73667908 14.23138428 C0.63980301 13.09380676 0.54292694 11.95622925 0.44311523 10.78417969 C0.35730698 9.78570007 0.27149872 8.78722046 0.18309021 7.75848389 C0.01176683 5.17728199 0 2.58688131 0 0 Z " fill="#FEFEFE" transform="translate(93,243)"/>
<path d="M0 0 C67.32 0 134.64 0 204 0 C202.86599171 27.21619898 202.86599171 27.21619898 201.5625 37.75 C200.47563299 47.15901298 199.61797046 56.54868715 199 66 C198.30659559 76.53857059 197.28838327 87.00602564 196.10546875 97.5 C195.20407032 105.65811107 194.53926689 113.81045542 194 122 C193.30712396 132.52232082 192.29412795 142.97410451 191.10986328 153.45166016 C190.02339848 163.26582818 189.27782365 173.08819666 188.64648438 182.94140625 C188.57494141 184.04097656 188.50339844 185.14054688 188.4296875 186.2734375 C188.37022949 187.23685059 188.31077148 188.20026367 188.24951172 189.19287109 C187.98533631 192.16497373 187.50295916 195.05991339 187 198 C186.82762694 200.39407023 186.68422206 202.79032073 186.5625 205.1875 C186.24274228 210.87592465 185.76465945 216.5253293 185.125 222.1875 C184.03334995 231.94090463 183.27338244 241.71744763 182.5 251.5 C181.7066061 261.52301321 180.90747963 271.53263643 179.76953125 281.5234375 C178.81807625 290.16452065 178.18623962 298.83474217 177.5 307.5 C176.70635613 317.52146858 175.90975735 327.52998591 174.76953125 337.51904297 C173.64011101 347.7601999 172.92638829 358.04623131 172.140625 368.31835938 C171.56711689 375.70803931 170.91355267 383.06883332 170.0078125 390.42578125 C168.85593666 399.78349161 168.10645781 409.16400971 167.375 418.5625 C167.23987814 420.26760151 167.10446275 421.97267979 166.96875 423.67773438 C166.64246798 427.7848978 166.3200933 431.89234982 166 436 C160.05076909 438.33288807 154.08666226 440.18377395 147.921875 441.85546875 C146.48744301 442.24952156 146.48744301 442.24952156 145.02403259 442.65153503 C142.98637402 443.21097896 140.94827091 443.7688059 138.90975952 444.32513428 C133.58494861 445.77838867 128.26330177 447.24314337 122.94140625 448.70703125 C121.8965657 448.99412964 120.85172516 449.28122803 119.77522278 449.57702637 C111.73038278 451.79053033 103.70396745 454.06094396 95.6875 456.375 C86.5342623 459.01111098 77.35996013 461.54512171 68.1550293 463.99438477 C60.51310104 466.03516265 52.88919915 468.13558251 45.26953125 470.2578125 C44.22540573 470.54825943 43.18128021 470.83870636 42.10551453 471.13795471 C37.85458392 472.32062688 33.60368876 473.50336091 29.35482788 474.69345093 C26.35200898 475.53447789 23.34798333 476.37107314 20.34375 477.20703125 C19.44981033 477.45885162 18.55587067 477.710672 17.63484192 477.97012329 C16.77759018 478.20790497 15.92033844 478.44568665 15.03710938 478.69067383 C14.30278687 478.89606277 13.56846436 479.10145172 12.81188965 479.31306458 C8.57300923 480.34860917 4.27880058 481.14423988 0 482 C-0.33 460.55 -0.66 439.1 -1 417 C7.91 414.69 16.82 412.38 26 410 C32.435 408.02 32.435 408.02 39 406 C42.82967138 404.9760237 46.65754978 403.97183621 50.5 403 C56.54082713 401.45007643 62.55673426 399.89678694 68.5 398 C75.44312912 395.78410773 82.49851882 394.02779194 89.55493164 392.21533203 C95.71406937 390.62395656 101.79028804 388.8790703 107.8515625 386.9453125 C114.16860755 385.04863148 120.59295303 383.55895287 127 382 C128.40526168 371.43496307 129.52628787 360.87262177 130.41915894 350.25242043 C130.63788763 347.65099341 130.86053566 345.04992397 131.08398438 342.44889832 C131.40910717 338.66003547 131.73266778 334.87104417 132.05496216 331.0819397 C132.93364556 320.75825796 133.82514021 310.43568032 134.71875 300.11328125 C134.85772799 298.50705304 134.85772799 298.50705304 134.99951363 296.86837578 C137.09536393 272.67457082 139.32173343 248.49323896 141.5625 224.3125 C144.6586276 190.88750308 147.65627391 157.45594791 150.50253201 124.00870037 C150.76957414 120.87135816 151.0373979 117.73408276 151.30513573 114.59679985 C151.47879386 112.55584887 151.65076066 110.51475417 151.82258606 108.47364807 C153.11359492 93.30524367 154.57885895 78.15883791 156 63 C104.52 63 53.04 63 0 63 C0 42.21 0 21.42 0 0 Z " fill="#2965F0" transform="translate(250,180)"/>
<path d="M0 0 C20.79 0 41.58 0 63 0 C63.99 9.8690625 63.99 9.8690625 65 19.9375 C65.31324219 23.02532837 65.31324219 23.02532837 65.6328125 26.17553711 C65.79722447 27.83443806 65.96130826 29.49337158 66.125 31.15234375 C66.21136719 31.99156372 66.29773438 32.83078369 66.38671875 33.69543457 C66.92034114 39.15791732 67.07727352 44.51116514 67 50 C67.62261719 50.07476563 68.24523437 50.14953125 68.88671875 50.2265625 C76.57926676 51.32089987 83.84684292 53.28800133 91.29150391 55.46850586 C98.69088469 57.63571848 106.11616249 59.687654 113.5625 61.6875 C114.61969238 61.97262451 115.67688477 62.25774902 116.76611328 62.55151367 C123.82799252 64.4463128 130.9032322 66.22580805 138 68 C137.67 89.45 137.34 110.9 137 133 C123.88452635 130.37690527 111.18985387 127.11586595 98.41552734 123.2097168 C93.38546646 121.68244234 88.35969331 120.29751923 83.25 119.0625 C76.58168367 117.44736006 70.01571272 115.57355627 63.4375 113.625 C54.30411585 110.91999328 45.13461664 108.43328303 35.90795898 106.06787109 C29.78639124 104.49028528 23.74029987 102.78762411 17.71875 100.859375 C14.49686908 99.84096436 11.25018763 98.92358704 8 98 C7.10175994 87.73275888 6.2061507 77.46529183 5.31375217 67.19754124 C4.89914258 62.4280518 4.48368136 57.65863997 4.06616211 52.8894043 C3.66205605 48.27300273 3.26033291 43.65639905 2.86015129 39.03965569 C2.70830279 37.29245795 2.55564534 35.54533029 2.40210152 33.79828072 C2.18451808 31.32087016 1.97001416 28.84320857 1.75610352 26.36547852 C1.66331367 25.32104332 1.66331367 25.32104332 1.56864929 24.25550842 C0.87774848 16.17525897 0.47680665 8.10571304 0 0 Z " fill="#EAEAEA" transform="translate(113,464)"/>
<path d="M0 0 C51.81 0 103.62 0 157 0 C157 20.46 157 40.92 157 62 C186.04 62 215.08 62 245 62 C245 62.33 245 62.66 245 63 C214.56983614 63.02278993 184.13967316 63.04049795 153.70950273 63.05106533 C150.12070688 63.05231611 146.53191106 63.05361042 142.94311523 63.05493164 C142.22862061 63.05519395 141.51412599 63.05545626 140.77798002 63.05572652 C129.19387082 63.06008331 117.60976655 63.0679709 106.02566028 63.0771528 C94.14809542 63.0864891 82.27053316 63.09205556 70.39296478 63.09408849 C63.71782379 63.09534006 57.04269266 63.09848476 50.36755562 63.10573006 C44.0927171 63.11248609 37.81789449 63.11461782 31.54305267 63.11310768 C29.23267722 63.1133842 26.92230126 63.11539178 24.61192894 63.11920547 C21.47247226 63.12413621 18.33307669 63.12300059 15.19361877 63.12025452 C14.26659497 63.12316736 13.33957117 63.1260802 12.38445574 63.12908131 C6.11412121 63.11412121 6.11412121 63.11412121 5 62 C4.75897981 60.25064955 4.58056609 58.4926271 4.42749023 56.73339844 C4.32746201 55.60842957 4.22743378 54.48346069 4.12437439 53.32440186 C3.96806297 51.48546356 3.96806297 51.48546356 3.80859375 49.609375 C3.69902847 48.35747375 3.5894632 47.10557251 3.47657776 45.81573486 C3.24502275 43.15937996 3.01519495 40.50294421 2.78833008 37.84619141 C2.49810787 34.44854464 2.20207401 31.0514373 1.90394497 27.65447617 C1.61970271 24.41048844 1.33919525 21.16617937 1.05859375 17.921875 C0.95236191 16.70401306 0.84613007 15.48615112 0.73667908 14.23138428 C0.63980301 13.09380676 0.54292694 11.95622925 0.44311523 10.78417969 C0.35730698 9.78570007 0.27149872 8.78722046 0.18309021 7.75848389 C0.01176683 5.17728199 0 2.58688131 0 0 Z " fill="#E9E9EB" transform="translate(93,243)"/>
<path d="M0 0 C47.85 0 95.7 0 145 0 C145 20.46 145 40.92 145 62 C98.8 62 52.6 62 5 62 C2.69240217 43.5392174 2.69240217 43.5392174 2.1484375 36.9140625 C2.08467926 36.16136078 2.02092102 35.40865906 1.95523071 34.63314819 C1.82431004 33.07604425 1.69500987 31.51880315 1.56738281 29.96142578 C1.37337741 27.60529424 1.17132391 25.24993989 0.96875 22.89453125 C0.84066528 21.35941502 0.71304443 19.82426 0.5859375 18.2890625 C0.52659027 17.60341217 0.46724304 16.91776184 0.40609741 16.21133423 C-0.03155739 10.75483213 0 5.52750937 0 0 Z " fill="#EAEAEB" transform="translate(105,370)"/>
<path d="M0 0 C25.41 0 50.82 0 77 0 C77 9.24 77 18.48 77 28 C62.48 28 47.96 28 33 28 C33 29.65 33 31.3 33 33 C47.52 33 62.04 33 77 33 C77 54.12 77 75.24 77 97 C51.59 97 26.18 97 0 97 C0 87.1 0 77.2 0 67 C14.52 67 29.04 67 44 67 C44 65.68 44 64.36 44 63 C29.48 63 14.96 63 0 63 C0 42.21 0 21.42 0 0 Z " fill="#000000" transform="translate(299,0)"/>
<path d="M0 0 C25.41 0 50.82 0 77 0 C77 9.24 77 18.48 77 28 C62.48 28 47.96 28 33 28 C33 29.65 33 31.3 33 33 C47.52 33 62.04 33 77 33 C77 54.12 77 75.24 77 97 C51.59 97 26.18 97 0 97 C0 87.1 0 77.2 0 67 C14.52 67 29.04 67 44 67 C44 65.68 44 64.36 44 63 C29.48 63 14.96 63 0 63 C0 42.21 0 21.42 0 0 Z " fill="#000000" transform="translate(208,0)"/>
<path d="M0 0 C71.61 0 143.22 0 217 0 C215.875 16.875 215.875 16.875 215.33569336 22.76147461 C215.27702591 23.40740067 215.21835846 24.05332672 215.15791321 24.71882629 C214.97027296 26.78015986 214.78010638 28.84125074 214.58984375 30.90234375 C214.45659182 32.3606269 214.32350284 33.81892494 214.19056702 35.27723694 C213.84531141 39.05999398 213.49788813 42.84254868 213.14996338 46.62506104 C212.79328947 50.50707892 212.43873451 54.38929031 212.08398438 58.27148438 C211.39135957 65.84784377 210.69643738 73.42399001 210 81 C206.20392672 82.67851232 202.59064833 84.26421726 198.5390625 85.2109375 C197.74725586 85.40099365 196.95544922 85.5910498 196.13964844 85.78686523 C195.30981445 85.98094971 194.47998047 86.17503418 193.625 86.375 C187.2786014 87.90706935 180.99515485 89.53420743 174.75 91.4375 C167.5738208 93.61111746 160.33584258 95.49201184 153.0625 97.3125 C152.00063477 97.57925537 150.93876953 97.84601074 149.84472656 98.12084961 C142.25891591 100 142.25891591 100 140 100 C140 67.33 140 34.66 140 1 C93.8 1 47.6 1 0 1 C0 0.67 0 0.34 0 0 Z " fill="#2B66F0" transform="translate(110,432)"/>
<path d="M0 0 C25.41 0 50.82 0 77 0 C77 10.56 77 21.12 77 32 C62.48 32 47.96 32 33 32 C33 42.23 33 52.46 33 63 C47.52 63 62.04 63 77 63 C77 73.89 77 84.78 77 96 C51.59 96 26.18 96 0 96 C0 64.32 0 32.64 0 0 Z " fill="#000000" transform="translate(117,0)"/>
<path d="M0 0 C29.04 0 58.08 0 88 0 C86.35 21.12 84.7 42.24 83 64 C7.76 64 -67.48 64 -145 64 C-145.33 65.32 -145.66 66.64 -146 68 C-146 66.35 -146 64.7 -146 63 C-97.82 63 -49.64 63 0 63 C0 42.21 0 21.42 0 0 Z " fill="#2B66F0" transform="translate(250,306)"/>
</svg>
