<?xml version="1.0" encoding="UTF-8"?>
<svg version="1.1" xmlns="http://www.w3.org/2000/svg" width="250" height="250">
<path d="M0 0 C4.81204793 2.93713675 8.60619368 7.24529944 12.5525589 11.22649384 C13.59222097 12.26072998 14.63273079 13.29411452 15.67401886 14.32671356 C18.48889265 17.12340712 21.29103235 19.93253942 24.0904665 22.74467754 C27.0272162 25.69158235 29.97374502 28.62868342 32.9187088 31.56737518 C37.86181946 36.50321676 42.79645518 41.44741351 47.72638702 46.39641571 C53.41921892 52.11101483 59.12631737 57.81106139 64.8410399 63.50376296 C69.75473678 68.39928484 74.66056672 73.30258776 79.55995345 78.21243119 C82.48286303 81.14156411 85.40837761 84.06795776 88.34101868 86.98735046 C91.09820311 89.73294651 93.84535446 92.48820829 96.58519745 95.25110626 C97.58992371 96.26110363 98.59803622 97.26774587 99.6098175 98.27067566 C110.53179608 109.10590724 110.53179608 109.10590724 111.45001984 117.8290329 C110.78842349 123.89366604 107.9135185 127.8028529 103.68576813 132.03673553 C102.78855545 132.94240768 101.89134277 133.84807983 100.96694183 134.78119659 C99.97528643 135.76702013 98.98347519 136.75268693 97.99152374 137.73821259 C96.94439784 138.78940692 95.89791049 139.84123767 94.85201263 140.89365387 C92.01802146 143.74129044 89.17466025 146.57939306 86.32908297 149.41544628 C83.3493824 152.38753791 80.37702379 155.36695771 77.40348053 158.34520721 C72.41038029 163.34376055 67.41099861 168.33596586 62.40802765 173.32463837 C56.62599456 179.0903369 50.8548603 184.86677541 45.08925116 190.64889407 C40.13501414 195.61674797 35.17495103 200.57872799 30.20997751 205.53585172 C27.24617909 208.4949759 24.28443825 211.45608299 21.32793808 214.42250061 C18.54891418 217.21019509 15.76264503 219.99043956 12.97063255 222.76512337 C11.94775731 223.78403467 10.92742117 224.80550235 9.90984154 225.82970238 C8.51958792 227.22816419 7.11915021 228.6164796 5.71823883 230.00426483 C4.54741477 231.17339228 4.54741477 231.17339228 3.3529377 232.36613846 C-0.02771319 235.18650799 -2.89414215 236.14983425 -7.23748016 236.6415329 C-16.99778469 235.64895956 -22.86266858 228.9000834 -29.42424774 222.2689743 C-30.45419724 221.24281349 -31.4850034 220.21751188 -32.51659393 219.19300079 C-35.30031532 216.42317686 -38.07139643 213.64102443 -40.83989167 210.85599184 C-43.74562994 207.93634882 -46.66157218 205.02692687 -49.57602692 202.11598969 C-54.46589731 197.22881648 -59.34764222 192.3336409 -64.22454071 187.43352509 C-69.85701477 181.77442213 -75.50184106 176.12787688 -81.15350801 170.48794615 C-86.6002547 165.05198918 -92.03846601 159.6075709 -97.4727459 154.15915298 C-99.78136845 151.84478326 -102.09286738 149.53334434 -104.40674019 147.22422409 C-107.13137253 144.50437432 -109.84841765 141.77716157 -112.5598526 139.04415703 C-113.55416804 138.04429185 -114.55101909 137.04694066 -115.5506115 136.052351 C-116.91797904 134.6909691 -118.27515649 133.31937537 -119.63184357 131.94734955 C-120.39299375 131.18376947 -121.15414392 130.4201894 -121.93835926 129.63347054 C-124.98271288 126.00630888 -127.36044531 122.10374497 -127.29998016 117.2665329 C-127.30771454 116.6477829 -127.31544891 116.0290329 -127.32341766 115.3915329 C-126.07296097 108.72243054 -121.60427987 104.52988623 -116.97502899 99.97600555 C-116.27233383 99.27287231 -115.56963867 98.56973907 -114.84564972 97.84529877 C-112.53147974 95.53321141 -110.2068807 93.2319198 -107.88201141 90.9305954 C-106.27138729 89.32556907 -104.66142617 87.71987718 -103.05210114 86.11354828 C-98.82217339 81.89505471 -94.58331285 77.68564956 -90.34252167 73.47808075 C-86.01365961 69.17995006 -81.69331631 64.87327538 -77.37224579 60.56731415 C-68.89813435 52.12534173 -60.41456034 43.69294719 -51.92498016 35.2665329 C-46.1428576 37.97805145 -41.90378302 42.60870245 -37.3693161 47.01213837 C-36.24490943 48.09344818 -35.10815116 49.1620671 -33.95915985 50.21721649 C-24.38386598 59.01888829 -24.38386598 59.01888829 -23.24968719 64.57415009 C-23.29216766 67.7743454 -23.29216766 67.7743454 -23.67058563 70.64592743 C-24.0136551 74.18000384 -22.9729814 76.45504332 -21.38591766 79.5477829 C-19.87709898 81.52581156 -19.87709898 81.52581156 -16.88219452 82.9651413 C-13.92498016 85.2665329 -13.92498016 85.2665329 -13.16307831 88.26421356 C-13.15591797 90.01816437 -13.15591797 90.01816437 -13.14861298 91.80754852 C-13.13809906 92.45519669 -13.12758514 93.10284485 -13.11675262 93.77011871 C-13.0904 95.90532933 -13.10779998 98.03754351 -13.12810516 100.1727829 C-13.12406202 101.6596458 -13.11823774 103.14650484 -13.11071014 104.63335419 C-13.10187034 107.74730494 -13.11469914 110.860222 -13.1427536 113.97405243 C-13.17694292 117.96290859 -13.15725614 121.94934304 -13.12131882 125.93811035 C-13.09962157 129.00778658 -13.10654438 132.07688993 -13.12208557 135.14658356 C-13.12608392 136.61697426 -13.12119044 138.08741723 -13.10720825 139.55774689 C-13.09193688 141.61506794 -13.11521915 143.66848667 -13.14861298 145.72551727 C-13.15338654 146.89481781 -13.1581601 148.06411835 -13.16307831 149.26885223 C-13.92498016 152.2665329 -13.92498016 152.2665329 -16.82506561 154.47612762 C-17.84803741 155.06696136 -18.87100922 155.6577951 -19.92498016 156.2665329 C-23.34324095 160.85419869 -24.59496284 164.32584903 -24.31169891 170.05950165 C-23.45072728 174.97312765 -21.01496506 178.25630299 -17.36248016 181.6415329 C-12.73131802 184.72897432 -8.31536132 184.76581348 -2.92498016 184.2665329 C2.34824136 182.44118699 4.87193069 179.65934087 8.07501984 175.2665329 C9.7973918 170.09941699 9.73063606 165.16053531 7.95001984 160.0165329 C6.2259575 157.05210049 6.2259575 157.05210049 2.99445343 155.52751923 C0.55185298 153.51684033 0.10481765 152.43541984 -0.45397186 149.26833344 C-0.62127824 145.27918711 -0.59981508 141.33062414 -0.51091766 137.34075165 C-0.4997193 135.86817913 -0.49118213 134.39558417 -0.48519135 132.92298126 C-0.46234231 129.0573927 -0.40345654 125.19316877 -0.33696747 121.32811737 C-0.27545801 117.38004262 -0.24815807 113.43174613 -0.21794891 109.48332977 C-0.15370638 101.74377707 -0.05137845 94.00534658 0.07501984 86.2665329 C5.8808931 91.21116688 11.54938035 96.25839789 17.07501984 101.5165329 C17.95802765 102.31188446 18.84103546 103.10723602 19.75080109 103.92668915 C25.92162921 109.86719087 25.92162921 109.86719087 26.37140656 113.97039032 C26.06720734 116.63762665 26.06720734 116.63762665 25.50031281 119.04949188 C24.78758803 122.76490732 26.21749577 125.10874198 28.07501984 128.2665329 C32.08247859 133.01220774 35.24931252 134.9466415 41.38751984 135.6415329 C47.28037585 135.04225941 51.48012782 132.98410891 55.51251984 128.6415329 C58.79565598 123.65116596 58.64286367 119.1396605 58.07501984 113.2665329 C56.79902953 109.05422755 54.49166697 106.60505869 51.07501984 103.8290329 C47.67058737 102.03429515 45.42916112 102.42537364 41.68439484 102.9384079 C34.65726455 103.0201063 31.30172509 99.95972851 26.49726105 95.29865265 C25.34120574 94.13043795 24.19599257 92.95140357 23.06134796 91.76238251 C21.3250921 89.95410815 19.53552889 88.21565438 17.73126984 86.47551727 C9.52585731 78.29028875 9.52585731 78.29028875 8.37238312 73.11248016 C8.41095734 70.1884079 8.41095734 70.1884079 8.80304718 67.62493134 C9.274397 63.53764299 7.49267495 60.4599465 5.07501984 57.2665329 C1.02464541 53.59293749 -2.39759113 52.77180672 -7.67888641 52.44231415 C-8.79070282 52.35530243 -8.79070282 52.35530243 -9.92498016 52.2665329 C-10.66893036 52.21722626 -11.41288055 52.16791962 -12.17937469 52.11711884 C-16.07334174 50.91077158 -18.34294853 48.34406004 -21.10076141 45.48137665 C-21.95579506 44.61785332 -21.95579506 44.61785332 -22.82810211 43.73688507 C-24.6408558 41.90179798 -26.43918268 40.05327774 -28.23748016 38.2040329 C-29.46637094 36.95507331 -30.6961788 35.70701536 -31.92693329 34.45989227 C-34.9370113 31.40578721 -37.93422849 28.3395611 -40.92498016 25.2665329 C-36.16299649 19.55673866 -31.10141814 14.22735274 -25.86248016 8.9540329 C-25.07292938 8.14385712 -24.2833786 7.33368134 -23.46990204 6.49895477 C-22.70097626 5.72487274 -21.93205048 4.95079071 -21.13982391 4.15325165 C-20.10523041 3.10463959 -20.10523041 3.10463959 -19.04973602 2.03484344 C-13.38162695 -2.6823936 -6.65856098 -3.00520773 0 0 Z " fill="#F05033" transform="translate(132.92498016357422,7.733467102050781)"/>
</svg>
