<?xml version="1.0" encoding="UTF-8"?>
<svg version="1.1" xmlns="http://www.w3.org/2000/svg" width="250" height="250">
<path d="M0 0 C58.74 0 117.48 0 178 0 C176.84294096 20.82706276 176.84294096 20.82706276 176.00933838 30.12522888 C175.91782124 31.15195867 175.91782124 31.15195867 175.82445526 32.19943047 C175.72971294 33.26123118 175.72971294 33.26123118 175.63305664 34.34448242 C175.49799521 35.88253803 175.36317103 37.4206145 175.2285614 38.95870972 C174.86774603 43.07187725 174.50317655 47.18470291 174.1374619 51.29743743 C173.90849463 53.87416811 173.68033974 56.45096946 173.45245171 59.02779579 C172.65574135 68.03581766 171.85581906 77.04354787 171.05297852 86.05102539 C170.30681857 94.42360525 169.56804746 102.79681566 168.83257776 111.17034072 C168.19789911 118.39241901 167.557961 125.61401895 166.91396803 132.83527261 C166.53064325 137.13467447 166.14945026 141.43423883 165.77363777 145.73430443 C165.4209713 149.76759068 165.06175438 153.80024093 164.69754219 157.83250046 C164.56537591 159.30807851 164.43552538 160.78386616 164.30820847 162.25987053 C164.13357574 164.28014406 163.94962977 166.29960601 163.76527405 168.3190155 C163.66517564 169.44695621 163.56507723 170.57489691 163.46194553 171.73701763 C162.9542669 175.32303871 162.2086113 178.58407588 161 182 C158.23178101 183.56309509 158.23178101 183.56309509 154.65771484 184.53881836 C154.00703033 184.72515839 153.35634583 184.91149841 152.6859436 185.10348511 C150.53455672 185.7115112 148.37426057 186.27590211 146.2109375 186.83984375 C144.70774497 187.25350789 143.20519787 187.669524 141.70327759 188.08778381 C138.55211613 188.95877179 135.39649765 189.80989232 132.23583984 190.64575195 C128.19997749 191.71338246 124.17461127 192.81539183 120.15172386 193.93080807 C117.04679027 194.79006295 113.93877213 195.63763958 110.82951736 196.48111153 C109.34515395 196.88385174 107.8613148 197.28852973 106.37803268 197.6952343 C104.29426929 198.263205 102.20725624 198.81707635 100.11865234 199.36694336 C98.93443695 199.68336288 97.75022156 199.99978241 96.53012085 200.32579041 C89.75366115 201.62001073 84.35579554 201.09941346 77.7578125 199.25585938 C76.74656563 198.97788261 76.74656563 198.97788261 75.71488953 198.69429016 C73.51543931 198.08712536 71.32033553 197.46561141 69.125 196.84375 C67.58968598 196.41686826 66.05411837 195.99089764 64.51831055 195.5657959 C60.49793581 194.45036874 56.48110296 193.32268054 52.46490479 192.19232178 C48.35759426 191.03869485 44.24702316 189.89681071 40.13671875 188.75390625 C32.08792591 186.51402302 24.04284022 184.2611639 16 182 C12.4337387 147.82874371 9.40156651 113.60972232 6.36730814 79.38814223 C5.81331589 73.14332711 5.25533249 66.89887303 4.6965158 60.65448803 C4.15068066 54.55360838 3.60723661 48.45251896 3.06571412 42.351255 C2.74520371 38.74036294 2.42381825 35.12955463 2.10009003 31.51894951 C1.74259891 27.53043413 1.39010291 23.54149248 1.03808594 19.55249023 C0.93216125 18.37814926 0.82623657 17.20380829 0.71710205 15.99388123 C0.62191284 14.90615417 0.52672363 13.81842712 0.4286499 12.69773865 C0.30370462 11.29204195 0.30370462 11.29204195 0.1762352 9.85794735 C-0.02604292 6.57767065 0 3.28650751 0 0 Z " fill="#E44D26" transform="translate(36,49)"/>
<path d="M0 0 C36.63 0 73.26 0 111 0 C110.67 7.26 110.34 14.52 110 22 C81.95 22 53.9 22 25 22 C25.33 24.31 25.66 26.62 26 29 C26 34.28 26 39.56 26 45 C52.73 45 79.46 45 107 45 C107 51.6744547 106.84100697 58.00845011 106.16015625 64.6015625 C106.07374374 65.48170013 105.98733124 66.36183777 105.89830017 67.26864624 C105.62427474 70.05457401 105.34392771 72.83981107 105.0625 75.625 C104.69561875 79.28350507 104.33203873 82.94231305 103.97265625 86.6015625 C103.88601715 87.48362366 103.79937805 88.36568481 103.71011353 89.2744751 C102.95110322 97.17379443 102.42162351 105.07573047 102 113 C95.06573339 115.12911825 88.09973601 117.12753029 81.0925293 119.00244141 C77.21478792 120.05134193 73.42294595 121.17459564 69.65625 122.57421875 C59.47446039 126.25479413 52.60482328 126.05315631 42.34960938 122.74414062 C39.77408049 121.92844943 37.18288156 121.20109549 34.578125 120.484375 C26.31023595 118.19884289 18.11768377 115.77574785 10 113 C9.65985722 109.04222159 9.32915088 105.0837065 9 101.125 C8.90460938 100.01640625 8.80921875 98.9078125 8.7109375 97.765625 C8.62070313 96.66992188 8.53046875 95.57421875 8.4375 94.4453125 C8.35371094 93.45031738 8.26992187 92.45532227 8.18359375 91.43017578 C7.94430551 86.95943139 8 82.47714354 8 78 C15.26 78 22.52 78 30 78 C30.6578866 82.60520622 31.11854168 86.39812432 31.0625 90.9375 C31.05347656 91.89527344 31.04445313 92.85304688 31.03515625 93.83984375 C31.02355469 94.55269531 31.01195313 95.26554687 31 96 C33.05449754 96.4526859 35.10909277 96.90493122 37.1640625 97.35546875 C39.18492913 97.81475662 41.20012543 98.29930135 43.2109375 98.80078125 C44.31695312 99.07277344 45.42296875 99.34476562 46.5625 99.625 C47.59503906 99.88539063 48.62757812 100.14578125 49.69140625 100.4140625 C57.11631514 101.72898143 62.76832216 100.80039347 69.8125 98.5 C77.67060811 96 77.67060811 96 81 96 C80.97679687 95.33097656 80.95359375 94.66195312 80.9296875 93.97265625 C80.75410121 84.62895705 81.87598303 76.55414427 83 67 C57.59 67 32.18 67 6 67 C3.5625 39.125 3.5625 39.125 2.79907227 30.38330078 C2.59656575 28.07063374 2.39401343 25.75797072 2.19140625 23.4453125 C2.08856323 22.26573975 1.98572021 21.08616699 1.87976074 19.87084961 C1.77836792 18.71480225 1.6769751 17.55875488 1.57250977 16.36767578 C1.48590591 15.37728302 1.39930206 14.38689026 1.31007385 13.3664856 C0.89946719 8.90851084 0.44546268 4.45462678 0 0 Z " fill="#FEFDFD" transform="translate(69,86)"/>
<path d="M0 0 C23.76 0 47.52 0 72 0 C70.85852109 22.82957814 70.85852109 22.82957814 70.0625 30.3125 C69.88583363 32.07152591 69.71008662 33.83064435 69.53515625 35.58984375 C69.44637207 36.47526855 69.35758789 37.36069336 69.26611328 38.27294922 C68.80771792 42.9704503 68.4041122 47.67256732 68 52.375 C67.91758057 53.32979248 67.83516113 54.28458496 67.75024414 55.26831055 C67.4994024 58.17880892 67.2495366 61.08938945 67 64 C66.04462765 75.14352284 65.0821497 86.28519401 64.0078125 97.41796875 C62.88600581 109.04279547 61.87827288 120.67693655 60.875 132.3125 C60.6914886 134.43294984 60.50789522 136.55339258 60.32421875 138.67382812 C59.88187249 143.78247125 59.44061772 148.89120751 59 154 C53.30394627 156.22482401 47.61646775 158.03769114 41.71484375 159.62890625 C40.85492325 159.86407455 39.99500275 160.09924286 39.10902405 160.34153748 C36.38613437 161.08540226 33.66187603 161.82409965 30.9375 162.5625 C28.20988504 163.30564897 25.48255841 164.04984879 22.75526428 164.79417419 C21.06593471 165.25479961 19.37636308 165.71453856 17.68650818 166.17323303 C16.91202835 166.38362717 16.13754852 166.5940213 15.33959961 166.81079102 C14.60313202 167.01012238 13.86666443 167.20945374 13.10787964 167.41482544 C11.12286946 167.96588985 9.1498394 168.55959824 7.17797852 169.15600586 C4 170 4 170 0 170 C0 162.74 0 155.48 0 148 C7.87146123 144.62651662 7.87146123 144.62651662 12.00390625 143.53515625 C12.90326904 143.2942627 13.80263184 143.05336914 14.72924805 142.80517578 C16.13170776 142.43755127 16.13170776 142.43755127 17.5625 142.0625 C19.51843997 141.54115481 21.4741693 141.01901874 23.4296875 140.49609375 C24.37811523 140.24327637 25.32654297 139.99045898 26.30371094 139.72998047 C31.03061986 138.45023964 35.72423815 137.0602629 40.41796875 135.6640625 C43 135 43 135 46 135 C45.95649414 133.73736328 45.95649414 133.73736328 45.91210938 132.44921875 C45.66532073 118.86879191 47.12856043 105.49767441 48.5 92 C49.7375 79.625 49.7375 79.625 51 67 C24.27 67 -2.46 67 -30 67 C-30.33 59.41 -30.66 51.82 -31 44 C-2.95 44 25.1 44 54 44 C54 39.38 54 34.76 54 30 C54.33 27.36 54.66 24.72 55 22 C36.85 22 18.7 22 0 22 C0 14.74 0 7.48 0 0 Z " fill="#F0662A" transform="translate(125,64)"/>
<path d="M0 0 C36.63 0 73.26 0 111 0 C110.67 7.26 110.34 14.52 110 22 C81.95 22 53.9 22 25 22 C25.33 24.31 25.66 26.62 26 29 C26.06987589 30.39315986 26.10918405 31.78873026 26.09765625 33.18359375 C26.09515869 33.81579834 26.09266113 34.44800293 26.09008789 35.09936523 C26.08098389 35.87094971 26.07187988 36.64253418 26.0625 37.4375 C26.041875 39.933125 26.02125 42.42875 26 45 C35.9 45 45.8 45 56 45 C56 52.26 56 59.52 56 67 C39.5 67 23 67 6 67 C5.65066406 63.00132812 5.30132812 59.00265625 4.94140625 54.8828125 C4.66031061 51.66930178 4.3790901 48.45580204 4.09778595 45.24230957 C3.80209177 41.86404173 3.50661117 38.48575554 3.21166992 35.10742188 C2.87216656 31.22000071 2.53186086 27.33265046 2.19140625 23.4453125 C2.08719864 22.25011993 1.98299103 21.05492737 1.87562561 19.82351685 C1.77559738 18.68308929 1.67556915 17.54266174 1.57250977 16.36767578 C1.48590591 15.37728302 1.39930206 14.38689026 1.31007385 13.3664856 C0.89946719 8.90851084 0.44546268 4.45462678 0 0 Z " fill="#EAEAE9" transform="translate(69,86)"/>
<path d="M0 0 C7.26 0 14.52 0 22 0 C22.6578866 4.60520622 23.11854168 8.39812432 23.0625 12.9375 C23.05347656 13.89527344 23.04445313 14.85304687 23.03515625 15.83984375 C23.02355469 16.55269531 23.01195313 17.26554687 23 18 C24.134375 18.2475 25.26875 18.495 26.4375 18.75 C33.97610812 20.42255293 41.48508308 22.22482277 49 24 C49 31.92 49 39.84 49 48 C39.58955017 45.87242004 30.27630911 43.59071499 21 40.9375 C20.14124268 40.69241699 19.28248535 40.44733398 18.39770508 40.19482422 C12.88355753 38.59922747 7.43146553 36.85722667 2 35 C1.65985722 31.04222159 1.32915088 27.0837065 1 23.125 C0.85691406 21.46210938 0.85691406 21.46210938 0.7109375 19.765625 C0.62070313 18.66992188 0.53046875 17.57421875 0.4375 16.4453125 C0.35371094 15.45031738 0.26992187 14.45532227 0.18359375 13.43017578 C-0.05569449 8.95943139 0 4.47714354 0 0 Z " fill="#EAE8E7" transform="translate(77,164)"/>
<path d="M0 0 C18.15 0 36.3 0 55 0 C54.67 7.26 54.34 14.52 54 22 C36.18 22 18.36 22 0 22 C0 14.74 0 7.48 0 0 Z " fill="#FEFEFD" transform="translate(125,86)"/>
<path d="M0 0 C4.62 0 9.24 0 14 0 C15.65 2.97 17.3 5.94 19 9 C22.12903247 6.24016219 22.12903247 6.24016219 23.375 2.8125 C24.24125 1.884375 25.1075 0.95625 26 0 C30.29 0 34.58 0 39 0 C39 11.22 39 22.44 39 34 C35.04 34 31.08 34 27 34 C26.505 27.565 26.505 27.565 26 21 C24.02 23.97 22.04 26.94 20 30 C17.16032769 27.16032769 15.1653147 24.35997108 13 21 C12.67 25.29 12.34 29.58 12 34 C8.04 34 4.08 34 0 34 C0 22.78 0 11.56 0 0 Z " fill="#000000" transform="translate(126,0)"/>
<path d="M0 0 C4.29 0 8.58 0 13 0 C13 3.63 13 7.26 13 11 C15.97 11 18.94 11 22 11 C22 7.37 22 3.74 22 0 C25.96 0 29.92 0 34 0 C34 11.22 34 22.44 34 34 C30.04 34 26.08 34 22 34 C22 30.37 22 26.74 22 23 C19.03 23 16.06 23 13 23 C13 26.63 13 30.26 13 34 C8.71 34 4.42 34 0 34 C0 22.78 0 11.56 0 0 Z " fill="#000000" transform="translate(52,0)"/>
<path d="M0 0 C8.91 0 17.82 0 27 0 C26.45347463 9.68130659 25.87462831 19.34187035 25 29 C21.78140779 29.99703759 18.56168659 30.9900699 15.33984375 31.9765625 C13.47573581 32.54778622 11.61268206 33.12259455 9.75390625 33.7109375 C6.20981287 34.80021342 3.84744205 35 0 35 C0 23.45 0 11.9 0 0 Z " fill="#F1662B" transform="translate(125,153)"/>
<path d="M0 0 C10.56 0 21.12 0 32 0 C32 3.96 32 7.92 32 12 C28.7 12 25.4 12 22 12 C22 19.26 22 26.52 22 34 C18.04 34 14.08 34 10 34 C10 26.74 10 19.48 10 12 C6.7 12 3.4 12 0 12 C0 8.04 0 4.08 0 0 Z " fill="#000000" transform="translate(90,0)"/>
<path d="M0 0 C10.23 0 20.46 0 31 0 C31 6.93 31 13.86 31 21 C21.43 21 11.86 21 2 21 C1.67 18.64875 1.34 16.2975 1 13.875 C0.84337891 12.78227783 0.84337891 12.78227783 0.68359375 11.66748047 C0.13866514 7.68106819 0 4.06404157 0 0 Z " fill="#E44D26" transform="translate(94,109)"/>
<path d="M0 0 C3.96 0 7.92 0 12 0 C12 7.26 12 14.52 12 22 C17.28 22 22.56 22 28 22 C28 25.96 28 29.92 28 34 C18.76 34 9.52 34 0 34 C0 22.78 0 11.56 0 0 Z " fill="#000000" transform="translate(170,0)"/>
</svg>
