<?xml version="1.0" encoding="UTF-8"?>
<svg version="1.1" xmlns="http://www.w3.org/2000/svg" width="330" height="330">
<path d="M0 0 C108.9 0 217.8 0 330 0 C330 108.9 330 217.8 330 330 C221.1 330 112.2 330 0 330 C0 221.1 0 112.2 0 0 Z " fill="#F6DE1D" transform="translate(0,0)"/>
<path d="M0 0 C6.10102804 4.38787705 11.56656887 9.54912626 15.1875 16.1875 C13.9993885 19.7518345 13.18288137 20.10856431 10.07421875 22.03515625 C9.23826172 22.55787109 8.40230469 23.08058594 7.54101562 23.61914062 C6.66123047 24.15732422 5.78144531 24.69550781 4.875 25.25 C4.00681641 25.79205078 3.13863281 26.33410156 2.24414062 26.89257812 C-1.38169072 29.14376581 -4.96706564 31.32899179 -8.8125 33.1875 C-9.16441406 32.65640625 -9.51632812 32.1253125 -9.87890625 31.578125 C-13.16499271 26.87636161 -16.15626996 22.88329572 -21.8125 21.1875 C-27.59220326 20.53884266 -32.506051 20.66019124 -37.8125 23.1875 C-41.53843502 26.39594405 -42.65846153 28.55469219 -43.125 33.5 C-42.73867509 38.05863397 -41.8183134 39.74181147 -38.8125 43.1875 C-32.42799848 48.17033565 -25.31291553 51.4520143 -17.9375 54.6875 C14.56392138 69.05437034 14.56392138 69.05437034 22.1875 86.1875 C24.18948928 91.84710291 24.57372973 97.00258753 24.5625 102.9375 C24.56088867 103.82131348 24.55927734 104.70512695 24.55761719 105.61572266 C24.35641763 116.35228356 21.17152476 124.64969471 13.9375 132.6875 C13.03 133.5125 12.1225 134.3375 11.1875 135.1875 C10.39279297 135.91453125 10.39279297 135.91453125 9.58203125 136.65625 C-3.67893917 147.74004617 -21.40882829 148.24181655 -37.8125 147.1875 C-55.4212189 144.99620859 -68.10414291 135.98440173 -79.65625 122.98828125 C-81.23030821 120.53679194 -81.97381727 117.96369514 -82.8125 115.1875 C-74.6341994 110.18238004 -66.50856796 105.25930594 -57.8125 101.1875 C-57.06806641 102.18330078 -57.06806641 102.18330078 -56.30859375 103.19921875 C-50.33749588 110.96051294 -45.61116155 115.87182044 -35.8125 118.1875 C-33.09733258 118.39490862 -30.52126222 118.512973 -27.8125 118.5 C-26.80316406 118.52416992 -26.80316406 118.52416992 -25.7734375 118.54882812 C-19.69143382 118.55469878 -15.06647043 117.14489537 -10.4375 113.125 C-7.91448461 110.11678934 -7.63200966 108.23857873 -7.5625 104.375 C-7.53671875 103.52292969 -7.5109375 102.67085938 -7.484375 101.79296875 C-7.98997276 97.77828179 -9.68159817 95.078669 -12.85791016 92.57568359 C-19.43681263 88.78511827 -26.1859921 85.73617737 -33.1875 82.8125 C-42.06459943 79.01071795 -50.18002442 75.17872646 -57.8125 69.1875 C-58.66199219 68.54683594 -59.51148438 67.90617187 -60.38671875 67.24609375 C-68.12143924 60.68216831 -73.02811876 51.01929776 -74.03564453 40.95947266 C-74.89561273 27.66096749 -73.42431755 17.73313017 -64.73046875 7.22265625 C-48.44283009 -10.06015381 -19.81914139 -12.3003989 0 0 Z " fill="#020200" transform="translate(279.8125,156.8125)"/>
<path d="M0 0 C10.23 0 20.46 0 31 0 C31.11334787 14.71778494 31.20524976 29.43529431 31.25906086 44.15341949 C31.28472262 50.98899586 31.31963897 57.82427959 31.37719727 64.65966797 C31.43280631 71.26678247 31.4614941 77.87367487 31.47438622 84.48103333 C31.48356361 86.99099994 31.50148347 89.5009516 31.52865028 92.01078796 C31.7214193 110.57267065 31.22848238 127.35508063 18.296875 141.91796875 C8.42110124 151.64851054 -5.01674918 153.30397164 -18.20092773 153.31469727 C-31.3087656 153.11449622 -42.72402573 148.92074993 -52.3203125 139.79296875 C-62 129.30961716 -62 129.30961716 -62 124 C-60.53466797 122.91845703 -60.53466797 122.91845703 -58.4921875 121.7578125 C-57.38230469 121.11779297 -57.38230469 121.11779297 -56.25 120.46484375 C-55.46625 120.02269531 -54.6825 119.58054687 -53.875 119.125 C-52.3506016 118.2542843 -50.82714688 117.38191418 -49.3046875 116.5078125 C-48.56959961 116.08790039 -47.83451172 115.66798828 -47.07714844 115.23535156 C-45.20045389 114.11921682 -43.41903834 112.93347002 -41.6328125 111.6796875 C-39 110 -39 110 -36 110 C-34.5703125 111.828125 -34.5703125 111.828125 -33.125 114.25 C-30.37462473 118.60133998 -27.6696645 121.66516775 -23 124 C-20.73354234 124.17522676 -18.46027146 124.26728256 -16.1875 124.3125 C-14.96417969 124.34988281 -13.74085938 124.38726562 -12.48046875 124.42578125 C-8.26871313 123.91053842 -6.83410457 123.14076161 -4 120 C-0.96252509 113.49199138 -0.55759445 107.93087621 -0.56762695 100.81054688 C-0.5574353 99.71697876 -0.54724365 98.62341064 -0.53674316 97.4967041 C-0.50669577 93.90400005 -0.49735958 90.31156302 -0.48828125 86.71875 C-0.4714285 84.21910725 -0.45327746 81.71947295 -0.43388367 79.21984863 C-0.39128415 73.32691717 -0.36171945 67.43403456 -0.33856028 61.54099703 C-0.30877818 54.16786527 -0.25859556 46.79489538 -0.20898438 39.421875 C-0.12301809 26.28129821 -0.05718582 13.14073359 0 0 Z " fill="#030200" transform="translate(149,151)"/>
</svg>
