<?xml version="1.0" encoding="UTF-8"?>
<svg version="1.1" xmlns="http://www.w3.org/2000/svg" width="250" height="154">
<path d="M0 0 C5.28312162 0 7.55153311 1.17783356 11.75 3.9375 C12.33910156 4.31068359 12.92820313 4.68386719 13.53515625 5.06835938 C17.76971726 7.76971726 17.76971726 7.76971726 19 9 C19.22083619 11.19258704 19.37111133 13.39229972 19.49438477 15.5925293 C19.53308182 16.28219788 19.57177887 16.97186646 19.61164856 17.68243408 C19.9527779 24.08837612 20.16047849 30.49813927 20.32562351 36.91081524 C20.43920675 41.21678895 20.59729635 45.5104709 20.86547852 49.80981445 C22.55182528 77.52462837 22.55182528 77.52462837 16.64422607 84.96832275 C9.2190631 91.19925586 -0.33158249 95.69236214 -10 97 C-12.73901367 95.86010742 -12.73901367 95.86010742 -15.66796875 94.10546875 C-16.72564453 93.47962891 -17.78332031 92.85378906 -18.87304688 92.20898438 C-19.96681641 91.54189453 -21.06058594 90.87480469 -22.1875 90.1875 C-23.84555664 89.20426758 -23.84555664 89.20426758 -25.53710938 88.20117188 C-33.64183606 83.35816394 -33.64183606 83.35816394 -36 81 C-36.42205778 76.76168864 -36.37159338 72.50838238 -36.37060547 68.25146484 C-36.37497009 66.139474 -36.41125594 64.02958836 -36.44921875 61.91796875 C-36.45508881 60.5729238 -36.45905694 59.22786894 -36.4609375 57.8828125 C-36.46915527 56.65965332 -36.47737305 55.43649414 -36.48583984 54.17626953 C-35.90274747 50.36419323 -35.01115902 49.32604223 -32 47 C-29.94116211 45.65966797 -29.94116211 45.65966797 -27.77734375 44.4921875 C-26.99166016 44.06292969 -26.20597656 43.63367187 -25.39648438 43.19140625 C-24.58501953 42.75699219 -23.77355469 42.32257812 -22.9375 41.875 C-21.32106042 40.99841695 -19.70515287 40.12085195 -18.08984375 39.2421875 C-17.37691162 38.8591748 -16.66397949 38.47616211 -15.92944336 38.08154297 C-14.23910277 37.13402825 -12.61233989 36.07489326 -11 35 C-6.84130536 35.29704962 -4.49592778 35.66938148 -1 38 C-0.67 25.46 -0.34 12.92 0 0 Z M-15.25390625 59.22265625 C-17.22130309 60.90388071 -17.22130309 60.90388071 -17.52734375 63.55859375 C-17.50229564 66.08129607 -17.34916355 68.50251073 -17 71 C-12.52602834 74.09888031 -12.52602834 74.09888031 -7.375 74.9375 C-6.199375 74.4734375 -6.199375 74.4734375 -5 74 C-3.6078125 73.5359375 -3.6078125 73.5359375 -2.1875 73.0625 C0.43059138 70.59401384 0.52039208 69.63551127 0.8125 66.125 C0.68102773 62.91332019 0.53066669 61.53066669 -1.765625 59.234375 C-7.57700182 55.59703843 -9.42942455 55.64075574 -15.25390625 59.22265625 Z " fill="#323232" transform="translate(166,0)"/>
<path d="M0 0 C2.77661133 1.17749023 2.77661133 1.17749023 5.58203125 2.80859375 C6.59587891 3.39060547 7.60972656 3.97261719 8.65429688 4.57226562 C9.69650391 5.18779297 10.73871094 5.80332031 11.8125 6.4375 C12.87404297 7.04916016 13.93558594 7.66082031 15.02929688 8.29101562 C22.77711816 12.77711816 22.77711816 12.77711816 24 14 C25.71775338 24.14789315 27.58555704 37.08382621 24 47 C18.31629808 54.45846934 8.92765975 58.67880846 0 61 C-6.9906738 61.41346811 -12.60962838 57.04966018 -18.375 53.5 C-19.88900391 52.58927734 -19.88900391 52.58927734 -21.43359375 51.66015625 C-28.77830038 47.22169962 -28.77830038 47.22169962 -30 46 C-30.4114449 41.69514239 -30.52800488 37.38567265 -30.62475586 33.06445312 C-30.6662978 31.61484939 -30.72755863 30.16566528 -30.80932617 28.71777344 C-31.47406816 16.7496765 -31.47406816 16.7496765 -27.97998047 12.60229492 C-25.40160099 10.77910677 -22.84173989 9.37009196 -20 8 C-18.71542177 7.20238908 -17.43816191 6.39274871 -16.171875 5.56640625 C-15.04265625 4.90511719 -13.9134375 4.24382813 -12.75 3.5625 C-12.17765625 3.21251953 -11.6053125 2.86253906 -11.015625 2.50195312 C-7.10695848 0.23226154 -4.47340143 -0.38364291 0 0 Z " fill="#66A556" transform="translate(95,35)"/>
<path d="M0 0 C4.0849368 1.84237239 7.92763855 4.08410361 11.8125 6.3125 C12.88693359 6.87517578 13.96136719 7.43785156 15.06835938 8.01757812 C22.45430364 12.29908105 22.45430364 12.29908105 23.95385742 16.97314453 C24.21633584 21.09617711 24.2044175 24.44984482 21.59838867 27.80395508 C19.69953725 29.23456077 17.83929091 30.24227423 15.6875 31.25 C14.99720703 31.62511719 14.30691406 32.00023437 13.59570312 32.38671875 C10.59415667 33.97014326 8.42993382 35 5 35 C5.00902344 34.39671875 5.01804688 33.7934375 5.02734375 33.171875 C4.91842598 28.40945523 4.91842598 28.40945523 2.5859375 24.44140625 C-0.72612099 22.33306946 -2.33257699 21.85881436 -6.25 22.6875 C-7.1575 23.120625 -8.065 23.55375 -9 24 C-9.99 24.33 -10.98 24.66 -12 25 C-12 28.63 -12 32.26 -12 36 C-10.82050781 36.32871094 -10.82050781 36.32871094 -9.6171875 36.6640625 C-4.82600507 38.43359208 -0.54996341 40.84264142 3.875 43.375 C4.75414062 43.85710937 5.63328125 44.33921875 6.5390625 44.8359375 C7.36921875 45.3103125 8.199375 45.7846875 9.0546875 46.2734375 C9.81249512 46.70060059 10.57030273 47.12776367 11.35107422 47.56787109 C11.89521973 48.04047363 12.43936523 48.51307617 13 49 C13 50.32 13 51.64 13 53 C10.63508245 54.37502203 8.26071484 55.72444458 5.875 57.0625 C5.20984375 57.45244141 4.5446875 57.84238281 3.859375 58.24414062 C3.20195312 58.60830078 2.54453125 58.97246094 1.8671875 59.34765625 C1.27019043 59.68804932 0.67319336 60.02844238 0.05810547 60.37915039 C-3.84901866 61.55777633 -7.1050346 60.43035164 -10.68481445 58.70898438 C-11.5687085 58.17595703 -12.45260254 57.64292969 -13.36328125 57.09375 C-14.33201172 56.51496094 -15.30074219 55.93617187 -16.29882812 55.33984375 C-17.29333984 54.73269531 -18.28785156 54.12554687 -19.3125 53.5 C-20.83327148 52.58927734 -20.83327148 52.58927734 -22.38476562 51.66015625 C-29.79977679 47.20022321 -29.79977679 47.20022321 -31 46 C-31.29053382 41.63794726 -31.31401426 37.27013721 -31.35009766 32.8996582 C-31.36664057 31.43009588 -31.39390956 29.96061347 -31.43212891 28.49145508 C-31.48697348 26.3727852 -31.50878094 24.2560034 -31.5234375 22.13671875 C-31.5531665 20.22959106 -31.5531665 20.22959106 -31.58349609 18.28393555 C-31 15 -31 15 -28.77392578 12.74462891 C-27.85853027 12.16890137 -26.94313477 11.59317383 -26 11 C-24.80407227 10.22209106 -24.80407227 10.22209106 -23.58398438 9.4284668 C-20.89792393 7.83289423 -18.20281301 6.2545367 -15.5 4.6875 C-14.56285156 4.12482422 -13.62570313 3.56214844 -12.66015625 2.98242188 C-11.75136719 2.45583984 -10.84257812 1.92925781 -9.90625 1.38671875 C-9.08447266 0.90420654 -8.26269531 0.42169434 -7.41601562 -0.07543945 C-4.39869188 -1.23010851 -3.05475387 -0.98720525 0 0 Z " fill="#323232" transform="translate(227,35)"/>
<path d="M0 0 C1.32584106 0.79954102 1.32584106 0.79954102 2.6784668 1.61523438 C3.64719727 2.19402344 4.61592773 2.7728125 5.61401367 3.36914062 C6.60852539 3.97628906 7.60303711 4.5834375 8.62768555 5.20898438 C9.6415332 5.81613281 10.65538086 6.42328125 11.69995117 7.04882812 C19.11496233 11.50876116 19.11496233 11.50876116 20.31518555 12.70898438 C20.40389827 15.73876241 20.43037905 18.7456546 20.4128418 21.77539062 C20.41142685 22.68401352 20.4100119 23.59263641 20.40855408 24.52879333 C20.40293748 27.44305658 20.3903822 30.35724418 20.37768555 33.27148438 C20.37267268 35.24218639 20.36810941 37.21288961 20.36401367 39.18359375 C20.35296266 44.02541996 20.33568693 48.86718933 20.31518555 53.70898438 C15.4784132 53.01392227 12.21438884 51.79431038 8.00268555 49.27148438 C6.95467773 48.65402344 5.90666992 48.0365625 4.8269043 47.40039062 C2.31518555 45.70898438 2.31518555 45.70898438 1.31518555 43.70898438 C1.22229187 42.22286557 1.18346512 40.73313326 1.17456055 39.24414062 C1.15522461 38.36177734 1.13588867 37.47941406 1.1159668 36.5703125 C1.08218744 34.70855052 1.06388906 32.84644157 1.0612793 30.984375 C0.99151038 28.46718579 0.87686463 26.16443086 0.31518555 23.70898438 C-2.59436894 21.06963727 -3.83638877 20.67435476 -7.74731445 20.83398438 C-11.71265621 21.98771521 -11.71265621 21.98771521 -14.68481445 24.70898438 C-15.11674949 27.97670113 -14.94617745 31.23194299 -14.87231445 34.52148438 C-14.96667576 43.73554066 -14.96667576 43.73554066 -17.5637207 47.25585938 C-19.89500388 48.74603709 -22.09022452 49.76428753 -24.68481445 50.70898438 C-26.07700195 51.63710937 -26.07700195 51.63710937 -27.49731445 52.58398438 C-29.68481445 53.70898438 -29.68481445 53.70898438 -33.68481445 53.70898438 C-33.90785524 47.98007696 -34.07085321 42.25371039 -34.17919922 36.52148438 C-34.22437067 34.57344538 -34.28572595 32.62571007 -34.36376953 30.67871094 C-34.99389749 14.55073004 -34.99389749 14.55073004 -31.92919922 10.23901367 C-29.56798375 8.650042 -27.35215237 7.68527855 -24.68481445 6.70898438 C-23.27852145 5.87363256 -21.88806179 5.01090243 -20.5168457 4.11914062 C-19.17907294 3.33305343 -17.83924234 2.55045715 -16.49731445 1.77148438 C-15.48894531 1.15563477 -15.48894531 1.15563477 -14.46020508 0.52734375 C-13.79827148 0.14513672 -13.13633789 -0.23707031 -12.4543457 -0.63085938 C-11.58193237 -1.14700806 -11.58193237 -1.14700806 -10.69189453 -1.67358398 C-6.81819845 -2.86523675 -3.5483311 -1.70624487 0 0 Z " fill="#323232" transform="translate(33.684814453125,36.291015625)"/>
<path d="M0 0 C3.91976445 1.96652464 7.64219994 4.20176624 11.375 6.5 C12.38433594 7.10714844 13.39367187 7.71429688 14.43359375 8.33984375 C21.77830038 12.77830038 21.77830038 12.77830038 23 14 C23.29080862 18.50458869 23.31402283 23.01482154 23.35009766 27.52758789 C23.36664238 29.04564765 23.39391364 30.56362997 23.43212891 32.08129883 C23.48695794 34.26945408 23.50877897 36.45578119 23.5234375 38.64453125 C23.5531665 40.61450073 23.5531665 40.61450073 23.58349609 42.62426758 C23 46 23 46 20.77392578 48.26904297 C19.85853027 48.84025879 18.94313477 49.41147461 18 50 C17.20271484 50.51860596 16.40542969 51.03721191 15.58398438 51.5715332 C12.89792393 53.16710577 10.20281301 54.7454633 7.5 56.3125 C6.56285156 56.87517578 5.62570313 57.43785156 4.66015625 58.01757812 C3.75136719 58.54416016 2.84257812 59.07074219 1.90625 59.61328125 C0.67358398 60.33704956 0.67358398 60.33704956 -0.58398438 61.07543945 C-3.52016569 62.19905694 -5.02992167 61.90906092 -8 61 C-10.44967679 59.82017501 -12.67088852 58.41573443 -15 57 C-15 56.01 -15 55.02 -15 54 C-12.1875 53.375 -12.1875 53.375 -9 53 C-8.01 53.66 -7.02 54.32 -6 55 C-0.82394205 54.85857765 3.41461604 51.5722639 7.6875 48.9375 C9.20987937 48.00524931 10.73451448 47.07666913 12.26171875 46.15234375 C12.93162842 45.73976318 13.60153809 45.32718262 14.29174805 44.90209961 C16 44 16 44 18 44 C20.00286764 28.52560205 20.00286764 28.52560205 15.06884766 14.44677734 C9.60083356 9.65937407 3.15385007 6.37776825 -4 5 C-7.76277292 5.47247488 -9.39366116 6.25617482 -12.2578125 8.6796875 C-15 11 -15 11 -17.70727539 12.11474609 C-20.92097738 13.4710254 -23.36795096 14.69886516 -26 17 C-27.5129977 21.63599943 -27.36136102 26.03712804 -27.1875 30.875 C-27.18556641 32.13570312 -27.18363281 33.39640625 -27.18164062 34.6953125 C-27.16987766 37.80073479 -27.10776777 40.89666983 -27 44 C-22.59856908 45.81987408 -22.59856908 45.81987408 -18 47 C-16.16780354 45.16780354 -16.76098672 42.24286259 -16.68359375 39.77734375 C-16.64169922 38.51728516 -16.59980469 37.25722656 -16.55664062 35.95898438 C-16.51682404 34.61849264 -16.47711186 33.2779978 -16.4375 31.9375 C-16.39431958 30.59308477 -16.35070544 29.2486834 -16.30664062 27.90429688 C-16.20014642 24.6029766 -16.0981354 21.30157764 -16 18 C-14.35 18 -12.7 18 -11 18 C-10.87596879 22.18080601 -10.78546399 26.36062502 -10.7253418 30.54272461 C-10.70026853 31.96381291 -10.66620001 33.38477313 -10.62280273 34.80541992 C-10.56182142 36.85367462 -10.53372238 38.90021883 -10.51171875 40.94921875 C-10.48553467 42.17987061 -10.45935059 43.41052246 -10.43237305 44.6784668 C-11.16062957 48.93994208 -12.60527644 50.40353079 -16 53 C-21.67195547 53.27894863 -25.81054844 51.78220271 -30.29125977 48.29418945 C-33.743338 43.65935888 -33.21153286 37.76375498 -33.09790039 32.20507812 C-33.06251998 30.00124455 -33.11790494 27.81231642 -33.18164062 25.609375 C-33.2604177 15.52008709 -33.2604177 15.52008709 -30.20703125 11.83764648 C-27.87467323 10.26355615 -25.57423955 9.12881635 -23 8 C-21.6108719 7.15538714 -20.23252897 6.29270394 -18.8671875 5.41015625 C-17.53852705 4.6240969 -16.20781125 3.84150068 -14.875 3.0625 C-14.21113281 2.65193359 -13.54726562 2.24136719 -12.86328125 1.81835938 C-8.18415667 -0.89663169 -5.37616218 -1.67722707 0 0 Z " fill="#679F62" transform="translate(128,92)"/>
<path d="M0 0 C3.25 1.6875 3.25 1.6875 5 4 C5.3125 6.75 5.3125 6.75 5 9 C2.625 9.1875 2.625 9.1875 0 9 C-0.66 8.01 -1.32 7.02 -2 6 C-3.97747122 5.63702064 -3.97747122 5.63702064 -6.125 5.8125 C-7.40375 5.874375 -8.6825 5.93625 -10 6 C-10.33 6.66 -10.66 7.32 -11 8 C-10.02417969 8.18175781 -9.04835938 8.36351563 -8.04296875 8.55078125 C-6.77066406 8.80214844 -5.49835938 9.05351563 -4.1875 9.3125 C-2.92292969 9.55613281 -1.65835938 9.79976562 -0.35546875 10.05078125 C4.22183796 11.34564217 4.22183796 11.34564217 6 14 C6.47938032 17.76655968 6.54605311 20.05681735 4.625 23.375 C-0.52018224 26.56011282 -6.12068744 26.32813394 -11.9375 25.3125 C-15.17750338 23.92392712 -16.43502261 23.12995477 -18 20 C-18 18.68 -18 17.36 -18 16 C-15.625 15.8125 -15.625 15.8125 -13 16 C-12.34 16.99 -11.68 17.98 -11 19 C-9.14188086 19.61611847 -9.14188086 19.61611847 -7.0625 19.75 C-6.02802734 19.86601562 -6.02802734 19.86601562 -4.97265625 19.984375 C-2.78488438 20.10814587 -2.78488438 20.10814587 0 19 C0 18.34 0 17.68 0 17 C-0.89203125 16.81824219 -1.7840625 16.63648437 -2.703125 16.44921875 C-3.87359375 16.19785156 -5.0440625 15.94648437 -6.25 15.6875 C-7.41015625 15.44386719 -8.5703125 15.20023438 -9.765625 14.94921875 C-12.89539592 14.03069902 -14.70481413 13.28962852 -17 11 C-17.661707 6.95623498 -17.66441945 4.92544138 -15.25 1.5625 C-10.24035407 -0.84598362 -5.45537042 -0.74596916 0 0 Z " fill="#679F62" transform="translate(136,110)"/>
<path d="M0 0 C2.93374479 2.56633398 4.49955433 5.4882432 6.3203125 8.91015625 C6.93777344 10.06451172 7.55523437 11.21886719 8.19140625 12.40820312 C8.83603374 13.62625116 9.4805639 14.8443507 10.125 16.0625 C10.77685392 17.28476657 11.42919261 18.50677473 12.08203125 19.72851562 C16.60714286 28.21428571 16.60714286 28.21428571 18 31 C14.11470308 30.41279381 11.30465526 29.25117945 7.91796875 27.27734375 C6.98662109 26.73916016 6.05527344 26.20097656 5.09570312 25.64648438 C4.13599609 25.08251953 3.17628906 24.51855469 2.1875 23.9375 C1.20845703 23.36966797 0.22941406 22.80183594 -0.77929688 22.21679688 C-3.18993348 20.81745173 -5.5965851 19.41170071 -8 18 C-7.47729735 13.09690194 -5.9987369 9.81611493 -3.4375 5.625 C-2.79683594 4.56539063 -2.15617187 3.50578125 -1.49609375 2.4140625 C-1.00238281 1.61742188 -0.50867188 0.82078125 0 0 Z " fill="#3F883D" transform="translate(75,65)"/>
<path d="M0 0 C4.85482833 4.5755683 8.70100881 9.33134173 10 16 C8.63514381 21.26620716 5.17440381 25.68120062 2 30 C1.34 30.99 0.68 31.98 0 33 C-1.90849948 31.09150052 -1.13059633 27.68521226 -1.1328125 25.15625 C-1.13376923 24.47195923 -1.13472595 23.78766846 -1.13571167 23.0826416 C-1.1363933 21.63338123 -1.13454023 20.18411782 -1.13037109 18.73486328 C-1.12502252 16.50937072 -1.1303166 14.28407999 -1.13671875 12.05859375 C-1.13605797 10.65364539 -1.1347768 9.24869715 -1.1328125 7.84375 C-1.13168457 6.55662109 -1.13055664 5.26949219 -1.12939453 3.94335938 C-1 1 -1 1 0 0 Z " fill="#569D4A" transform="translate(66,49)"/>
<path d="M0 0 C2 2 2 2 2.125 5.625 C2.08375 6.73875 2.0425 7.8525 2 9 C-0.6875 10.6875 -0.6875 10.6875 -4 12 C-6.875 11.1875 -6.875 11.1875 -9 9 C-9.43337467 6.20226479 -9.23424492 3.85778808 -9 1 C-5.66429909 -1.10025613 -3.74952434 -1.18406032 0 0 Z " fill="#689E63" transform="translate(227,60)"/>
<path d="M0 0 C2.5625 0.375 2.5625 0.375 4.5 2.0625 C5.5625 4.375 5.5625 4.375 5.0625 7.0625 C3.5625 9.375 3.5625 9.375 1.125 10.3125 C-1.4375 10.375 -1.4375 10.375 -4.4375 8.375 C-4.75 5.375 -4.75 5.375 -4.4375 2.375 C-2.4375 0.375 -2.4375 0.375 0 0 Z M-2.4375 3.375 C-1.4375 7.375 -1.4375 7.375 -1.4375 7.375 Z M2.5625 4.375 C3.5625 6.375 3.5625 6.375 3.5625 6.375 Z " fill="#66A061" transform="translate(158.4375,102.625)"/>
</svg>
