<?xml version="1.0" encoding="UTF-8"?>
<svg version="1.1" xmlns="http://www.w3.org/2000/svg" width="250" height="223">
<path d="M0 0 C0.87914063 0.48855469 1.75828125 0.97710938 2.6640625 1.48046875 C3.52257812 1.93808594 4.38109375 2.39570312 5.265625 2.8671875 C14.22971409 7.9320366 21.92515323 14.75098243 29.6640625 21.48046875 C33.39490037 19.8827923 36.06326105 17.51862036 39.1015625 14.85546875 C45.2064855 9.65438413 51.62754166 5.35528059 58.6640625 1.48046875 C59.60636719 0.95066406 60.54867187 0.42085938 61.51953125 -0.125 C67.64014233 -3.13887332 73.1824588 -3.98841246 79.9140625 -4.08203125 C80.65873779 -4.09685547 81.40341309 -4.11167969 82.1706543 -4.12695312 C88.58651098 -4.00715053 93.6556355 -1.99245825 98.6171875 2.0859375 C107.74728555 13.22355711 109.78594251 27.11658039 108.39599609 41.19580078 C108.03851613 44.06701257 107.64169127 46.92954564 107.2265625 49.79296875 C107.02450195 51.25573242 107.02450195 51.25573242 106.81835938 52.74804688 C106.25982421 56.71773336 105.70019793 60.60347898 104.6640625 64.48046875 C105.21191406 64.69960937 105.75976562 64.91875 106.32421875 65.14453125 C108.04544069 65.83302003 109.76534471 66.52480718 111.484375 67.21875 C113.74099199 68.11418893 116.00784406 68.98402404 118.28125 69.8359375 C132.72359319 75.2948714 147.50916319 83.07484558 154.6640625 97.48046875 C157.00702045 104.5093426 156.8183937 113.03556448 153.7265625 119.79296875 C144.3723029 135.66922601 124.77933265 144.44933164 107.6640625 149.48046875 C106.3440625 149.48046875 105.0240625 149.48046875 103.6640625 149.48046875 C103.95410156 150.37572266 103.95410156 150.37572266 104.25 151.2890625 C109.35116806 168.28453827 111.88417048 190.06501214 103.6640625 206.48046875 C99.53111207 212.56954863 94.10986627 218.05214405 86.6640625 219.48046875 C67.29760852 221.12123777 52.5677683 211.69832344 38.21191406 199.82763672 C35.90736984 197.82188356 33.785878 195.67777956 31.6640625 193.48046875 C28.22363974 194.96716727 25.97164164 196.94736743 23.2890625 199.54296875 C10.5913786 211.13894185 -4.56260616 219.91849107 -22.08203125 219.68359375 C-29.7616393 219.20419445 -34.36079052 216.39606843 -39.578125 210.76953125 C-47.85324745 199.9934829 -48.37564077 184.22506445 -46.75 171.21875 C-46.49355076 169.40921274 -46.23046313 167.60060457 -45.9609375 165.79296875 C-45.83460937 164.88224609 -45.70828125 163.97152344 -45.578125 163.03320312 C-44.89346074 158.31928966 -44.04295113 153.95581318 -42.3359375 149.48046875 C-43.34398437 149.36960938 -44.35203125 149.25875 -45.390625 149.14453125 C-62.80900383 146.63369513 -80.85280524 135.27171098 -91.3359375 121.48046875 C-95.26206149 114.89018919 -95.09414646 107.99283794 -94.3359375 100.48046875 C-91.72605777 90.53337997 -82.6962668 83.12988165 -74.2421875 78.1015625 C-72.80359375 77.29912109 -72.80359375 77.29912109 -71.3359375 76.48046875 C-70.3975 75.95582031 -69.4590625 75.43117188 -68.4921875 74.890625 C-61.64326599 71.27284791 -54.65880848 68.76300484 -47.29296875 66.4609375 C-44.47935929 65.77343441 -44.47935929 65.77343441 -43.3359375 64.48046875 C-43.73916583 61.97985126 -44.20040094 59.52196013 -44.7109375 57.04296875 C-45.92318365 50.86687205 -46.98003587 44.77547877 -47.3359375 38.48046875 C-47.3771875 37.77148438 -47.4184375 37.0625 -47.4609375 36.33203125 C-47.80863935 24.29285482 -45.76248254 11.7704923 -37.5625 2.46875 C-27.51237953 -6.59391322 -11.60717804 -5.70766193 0 0 Z M-28.3359375 10.48046875 C-34.62502007 17.72507491 -35.76188735 26.83787746 -35.6015625 36.13671875 C-34.90228828 44.93934714 -33.56183276 53.92847116 -31.3359375 62.48046875 C-10.16406951 61.87951483 -10.16406951 61.87951483 7.46435547 52.67675781 C9.03887975 50.28645436 10.42780339 47.86376779 11.68994141 45.29492188 C13.34292883 42.21597388 15.58134949 39.75691269 17.8515625 37.10546875 C18.58761719 36.21085937 19.32367188 35.31625 20.08203125 34.39453125 C20.60410156 33.76289062 21.12617187 33.13125 21.6640625 32.48046875 C20.08401378 28.05633235 16.59151758 25.56280117 13.0390625 22.73046875 C12.38188232 22.20477295 11.72470215 21.67907715 11.04760742 21.13745117 C0.90348988 13.29364137 -15.90700427 1.83425433 -28.3359375 10.48046875 Z M45.6640625 25.48046875 C45.01695312 26.01542969 44.36984375 26.55039062 43.703125 27.1015625 C42.35151826 28.22155587 41.00674334 29.34979015 39.6640625 30.48046875 C41.02383505 34.51707103 42.78950124 36.98158744 45.7265625 40.04296875 C48.3293947 42.76227374 50.55447238 45.30038653 52.51513672 48.5222168 C55.40828367 53.25710241 58.00286447 57.26352305 63.48120117 58.91821289 C67.85542539 59.89278493 72.2701843 60.32374149 76.7265625 60.73046875 C78.27597258 60.91176027 79.82482076 61.09792347 81.37304688 61.2890625 C85.13259938 61.74259924 88.89359418 62.12966818 92.6640625 62.48046875 C93.15164318 60.24520605 93.63686542 58.00942882 94.12109375 55.7734375 C94.52678589 53.90594849 94.52678589 53.90594849 94.94067383 52.00073242 C95.79980646 47.81989093 96.41404568 43.73833096 96.6640625 39.48046875 C96.71691406 38.63226563 96.76976562 37.7840625 96.82421875 36.91015625 C97.12304231 27.78954165 95.97410091 17.51165441 89.6640625 10.48046875 C74.9626082 0.67949922 56.69241018 16.25228091 45.6640625 25.48046875 Z M27.3515625 43.74609375 C26.44999128 44.73568819 25.55439584 45.7307516 24.6640625 46.73046875 C23.7771875 47.705 22.8903125 48.67953125 21.9765625 49.68359375 C19.45960542 52.51391397 19.45960542 52.51391397 17.6640625 56.48046875 C26.2440625 56.48046875 34.8240625 56.48046875 43.6640625 56.48046875 C41.01561819 52.50780229 38.65150205 49.12027691 35.5390625 45.60546875 C34.85585937 44.82429688 34.17265625 44.043125 33.46875 43.23828125 C30.66467488 40.50703925 30.11897065 41.03478172 27.3515625 43.74609375 Z M25.68603516 67.37890625 C15.47686546 66.74782178 15.47686546 66.74782178 6.22265625 70.1796875 C4.28292598 72.83050219 3.03152194 75.49205217 1.6640625 78.48046875 C0.45690018 80.5432485 -0.8011623 82.57011639 -2.06103516 84.60107422 C-3.39893764 86.79378843 -4.66450104 89.01592969 -5.91796875 91.2578125 C-7.38364595 93.87798153 -8.91693976 96.35396436 -10.66015625 98.796875 C-12.81527779 102.21971509 -13.91056824 104.443986 -14.3359375 108.48046875 C-12.76376761 114.50571879 -9.28152661 119.73922368 -5.95166016 124.9296875 C-4.29675304 127.54233022 -2.75469993 130.20044853 -1.22265625 132.88671875 C-0.2011456 134.62820013 0.82350812 136.36784233 1.8515625 138.10546875 C2.32513184 138.92934082 2.79870117 139.75321289 3.28662109 140.60205078 C3.98972412 141.73682861 3.98972412 141.73682861 4.70703125 142.89453125 C5.10946045 143.56436035 5.51188965 144.23418945 5.92651367 144.92431641 C10.00929233 148.58086147 16.91119181 147.60863276 22.1015625 147.61328125 C22.78532959 147.61423798 23.46909668 147.6151947 24.17358398 147.61618042 C25.60888766 147.61685621 27.04419451 147.61504419 28.47949219 147.61083984 C30.65827392 147.60548298 32.83684956 147.61080533 35.015625 147.6171875 C36.41927128 147.61652661 37.82291744 147.61524523 39.2265625 147.61328125 C41.11568359 147.61158936 41.11568359 147.61158936 43.04296875 147.60986328 C49.8289367 147.7245849 49.8289367 147.7245849 55.50927734 144.70898438 C55.95996582 143.94263672 56.4106543 143.17628906 56.875 142.38671875 C57.39425049 141.52981445 57.91350098 140.67291016 58.44848633 139.79003906 C58.97337646 138.86288086 59.4982666 137.93572266 60.0390625 136.98046875 C60.58908936 136.03010742 61.13911621 135.07974609 61.70581055 134.10058594 C62.82564296 132.15726602 63.93692308 130.20899252 65.03955078 128.25585938 C66.52484375 125.71831648 68.10835263 123.31573749 69.78515625 120.90234375 C74.36438042 114.22423923 74.36438042 114.22423923 75.45751953 106.4375 C73.91587643 100.89866252 70.75300177 96.26400716 67.6640625 91.48046875 C66.52807749 89.5946135 65.39813644 87.70510779 64.2734375 85.8125 C59.13776888 76.64629599 59.13776888 76.64629599 52.6640625 68.48046875 C50.47421105 68.09262647 50.47421105 68.09262647 47.921875 68.03125 C46.94726318 67.98653564 45.97265137 67.94182129 44.96850586 67.89575195 C40.61378583 67.75497509 36.26009087 67.62462113 31.90380859 67.54296875 C29.83088178 67.5029786 27.75814301 67.44957332 25.68603516 67.37890625 Z M68.6640625 70.48046875 C69.20933594 71.48013672 69.20933594 71.48013672 69.765625 72.5 C73.3984375 79.16015625 77.03125 85.8203125 80.6640625 92.48046875 C81.3240625 92.48046875 81.9840625 92.48046875 82.6640625 92.48046875 C83.67011843 89.87849673 84.66908775 87.27417513 85.6640625 84.66796875 C86.09332031 83.56098633 86.09332031 83.56098633 86.53125 82.43164062 C86.80195313 81.71943359 87.07265625 81.00722656 87.3515625 80.2734375 C87.60292969 79.61883545 87.85429687 78.9642334 88.11328125 78.28979492 C88.80967156 76.31735732 88.80967156 76.31735732 88.6640625 73.48046875 C86.08153357 72.97597473 83.49817547 72.47672574 80.9140625 71.98046875 C80.18445313 71.83738281 79.45484375 71.69429688 78.703125 71.546875 C75.27062718 70.89157996 72.17236759 70.48046875 68.6640625 70.48046875 Z M-19.5859375 71.98046875 C-20.70355469 72.19509766 -20.70355469 72.19509766 -21.84375 72.4140625 C-23.67511365 72.76624782 -25.50561398 73.12291718 -27.3359375 73.48046875 C-26.03618426 80.19586048 -24.03664862 86.20065988 -21.3359375 92.48046875 C-20.6759375 92.48046875 -20.0159375 92.48046875 -19.3359375 92.48046875 C-17.70953016 89.56458473 -16.08506022 86.64762581 -14.4609375 83.73046875 C-13.77064453 82.49296875 -13.77064453 82.49296875 -13.06640625 81.23046875 C-12.62167969 80.43125 -12.17695312 79.63203125 -11.71875 78.80859375 C-11.31027832 78.07543945 -10.90180664 77.34228516 -10.48095703 76.58691406 C-9.38583014 74.57225419 -8.34831752 72.53775506 -7.3359375 70.48046875 C-11.57023812 70.48046875 -15.45483152 71.17030486 -19.5859375 71.98046875 Z M-50.2734375 80.04296875 C-51.26053711 80.44515625 -51.26053711 80.44515625 -52.26757812 80.85546875 C-63.74557494 85.64072391 -76.24799255 91.00703404 -82.3359375 102.48046875 C-83.56667028 106.63419188 -83.64169066 109.47822167 -81.9609375 113.41796875 C-73.70405226 127.8466672 -55.39655585 134.03705227 -40.3359375 138.48046875 C-38.16334992 136.30788117 -37.56754692 134.85494578 -36.49609375 132.0078125 C-35.9846582 130.65719727 -35.9846582 130.65719727 -35.46289062 129.27929688 C-35.11162109 128.33505859 -34.76035156 127.39082031 -34.3984375 126.41796875 C-34.05103516 125.50080078 -33.70363281 124.58363281 -33.34570312 123.63867188 C-32.65563001 121.80497476 -31.97870492 119.96627447 -31.31518555 118.12280273 C-30.6900786 116.43605816 -30.01839181 114.76538042 -29.28833008 113.12133789 C-27.50370298 108.82838339 -27.03493271 106.22884677 -28.65234375 101.796875 C-29.37229989 100.19897603 -30.12215232 98.61427372 -30.8984375 97.04296875 C-31.6606073 95.38171728 -32.42233021 93.72026071 -33.18359375 92.05859375 C-33.55629395 91.27162109 -33.92899414 90.48464844 -34.31298828 89.67382812 C-35.59681113 86.92111584 -36.73251058 84.12226854 -37.8359375 81.29296875 C-38.135 80.53628906 -38.4340625 79.77960938 -38.7421875 79 C-39.03609375 78.24783203 -39.03609375 78.24783203 -39.3359375 77.48046875 C-43.54640701 77.48046875 -46.46554741 78.47936117 -50.2734375 80.04296875 Z M100.6640625 77.48046875 C100.468125 77.98191406 100.2721875 78.48335938 100.0703125 79 C99.77125 79.75667969 99.4721875 80.51335937 99.1640625 81.29296875 C98.81214844 82.1953125 98.46023437 83.09765625 98.09765625 84.02734375 C96.96711959 86.75048928 95.77268189 89.39601528 94.51171875 92.05859375 C94.13660156 92.87739014 93.76148438 93.69618652 93.375 94.53979492 C92.62083324 96.1836027 91.84403685 97.8172518 91.04296875 99.4387207 C89.17454083 103.58558314 88.22037436 106.39881812 89.6484375 110.81640625 C90.29822871 112.38045249 90.97224377 113.93455281 91.6640625 115.48046875 C92.42393927 117.44822563 93.1775001 119.41842948 93.92578125 121.390625 C94.73204043 123.4423252 95.54066672 125.49309665 96.3515625 127.54296875 C96.76728516 128.59935547 97.18300781 129.65574219 97.61132812 130.74414062 C98.62682818 133.32374422 99.64444535 135.90249036 100.6640625 138.48046875 C117.01112397 134.07344377 134.79277674 127.14297193 144.1015625 112.16796875 C145.11735035 107.31476015 144.04115409 102.86940184 141.57421875 98.58984375 C133.15215258 87.75101076 116.70918407 80.69939485 103.6640625 77.48046875 C102.6740625 77.48046875 101.6840625 77.48046875 100.6640625 77.48046875 Z M-21.3359375 122.48046875 C-22.34199343 125.08244077 -23.34096275 127.68676237 -24.3359375 130.29296875 C-24.62210937 131.03095703 -24.90828125 131.76894531 -25.203125 132.52929688 C-25.47382812 133.24150391 -25.74453125 133.95371094 -26.0234375 134.6875 C-26.27480469 135.34210205 -26.52617188 135.9967041 -26.78515625 136.67114258 C-27.48154656 138.64358018 -27.48154656 138.64358018 -27.3359375 141.48046875 C-25.29634273 141.98885439 -23.25414612 142.48680761 -21.2109375 142.98046875 C-20.07398437 143.25890625 -18.93703125 143.53734375 -17.765625 143.82421875 C-14.52127052 144.4450064 -11.62779293 144.60053643 -8.3359375 144.48046875 C-10.0340777 139.79212515 -12.39755973 135.56190019 -14.8359375 131.23046875 C-15.44115234 130.1321875 -15.44115234 130.1321875 -16.05859375 129.01171875 C-16.44917969 128.315625 -16.83976562 127.61953125 -17.2421875 126.90234375 C-17.59603516 126.2690918 -17.94988281 125.63583984 -18.31445312 124.98339844 C-19.27453417 123.30768936 -19.27453417 123.30768936 -21.3359375 122.48046875 Z M81.6640625 122.48046875 C80.72809906 123.91337695 79.84204626 125.37892165 78.9765625 126.85546875 C76.29122678 131.41988928 73.54666504 135.94250771 70.765625 140.44921875 C69.50515625 142.38836775 69.50515625 142.38836775 69.6640625 144.48046875 C76.214961 144.02286922 82.3394467 143.27045435 88.6640625 141.48046875 C88.05530495 136.87630249 86.81683294 132.91563551 85.1015625 128.60546875 C84.41900391 126.87683594 84.41900391 126.87683594 83.72265625 125.11328125 C83.37332031 124.24445313 83.02398437 123.375625 82.6640625 122.48046875 C82.3340625 122.48046875 82.0040625 122.48046875 81.6640625 122.48046875 Z M-31.3359375 152.48046875 C-37.26935644 177.65167993 -37.26935644 177.65167993 -30.87109375 201.75390625 C-27.30003353 206.03989551 -27.30003353 206.03989551 -22.15625 207.75390625 C-6.38628861 208.34813668 6.22451246 198.49561582 17.4765625 188.41796875 C18.87955225 187.11312136 20.2783356 185.80363462 21.6640625 184.48046875 C19.32019437 179.03290711 15.01708426 174.87320381 11.17626953 170.43847656 C9.6640625 168.48046875 9.6640625 168.48046875 8.02294922 165.71777344 C4.3712625 159.80096259 4.3712625 159.80096259 -1.40966797 156.23901367 C-4.93857354 155.54148642 -8.37541514 155.13812872 -11.9609375 154.85546875 C-13.16234375 154.72269531 -14.36375 154.58992187 -15.6015625 154.453125 C-17.83306916 154.20820354 -20.06696379 153.98348334 -22.30322266 153.78662109 C-25.34481337 153.47957273 -28.32665387 153.01436484 -31.3359375 152.48046875 Z M91.6640625 152.48046875 C91.01445557 152.59640381 90.36484863 152.71233887 89.69555664 152.83178711 C86.70641485 153.36350306 83.71650267 153.89076148 80.7265625 154.41796875 C79.70498047 154.60037109 78.68339844 154.78277344 77.63085938 154.97070312 C76.11782227 155.23657227 76.11782227 155.23657227 74.57421875 155.5078125 C73.57269775 155.68747559 72.57117676 155.86713867 71.53930664 156.05224609 C68.92326714 156.44186427 66.42747431 156.5592045 63.7890625 156.640625 C60.19151877 157.01412717 58.74105171 157.98021487 56.44140625 160.76171875 C55.46839592 162.14983587 54.52249494 163.55726754 53.6015625 164.98046875 C52.58778094 166.44099049 51.57085651 167.89933576 50.55078125 169.35546875 C50.06399902 170.06316406 49.5772168 170.77085937 49.07568359 171.5 C46.2668629 175.44070451 42.98187708 178.9674886 39.6640625 182.48046875 C44.31042903 193.21926487 59.57973377 201.41410325 69.8515625 206.04296875 C75.08220079 207.8926188 80.19017146 208.57021735 85.6640625 207.48046875 C90.11002983 205.26153424 92.67377687 202.09959508 94.5390625 197.54296875 C97.81116858 186.90360542 96.95763373 176.37023314 95.2890625 165.54296875 C95.10005371 164.29918457 95.10005371 164.29918457 94.90722656 163.03027344 C94.77799805 162.24168945 94.64876953 161.45310547 94.515625 160.640625 C94.34281006 159.58307007 94.34281006 159.58307007 94.16650391 158.50415039 C93.61715519 156.29154034 92.75091666 154.47789258 91.6640625 152.48046875 Z M18.6640625 159.48046875 C20.56461447 163.2815727 22.58318408 165.98341464 25.2890625 169.23046875 C26.10632813 170.2153125 26.92359375 171.20015625 27.765625 172.21484375 C28.39210938 172.9625 29.01859375 173.71015625 29.6640625 174.48046875 C33.69933696 172.92559235 35.73914805 170.30225794 38.4140625 166.98046875 C39.21328125 166.00078125 40.0125 165.02109375 40.8359375 164.01171875 C42.85922602 161.73063929 42.85922602 161.73063929 42.6640625 159.48046875 C34.7440625 159.48046875 26.8240625 159.48046875 18.6640625 159.48046875 Z " fill="#60DAFB" transform="translate(94.3359375,3.51953125)"/>
<path d="M0 0 C4.78426133 4.94223223 6.31162914 10.19580477 6.96875 16.8984375 C6.38117313 24.06687525 4.12922194 29.79326215 -1.21875 34.7109375 C-7.45423246 39.58240817 -13.56882827 40.63736105 -21.34375 39.7109375 C-28.0335302 37.91768984 -32.63580069 34.54620388 -36.34375 28.7109375 C-39.44011741 22.85833395 -40.41307341 17.10428175 -38.83984375 10.640625 C-36.73566138 4.316054 -33.37585945 -0.42308724 -27.40625 -3.6015625 C-17.95043045 -7.80219609 -8.01720998 -6.73577068 0 0 Z " fill="#60DAFB" transform="translate(141.34375,94.2890625)"/>
</svg>
