<?xml version="1.0" encoding="UTF-8"?>
<svg version="1.1" xmlns="http://www.w3.org/2000/svg" width="250" height="188">
<path d="M0 0 C1.14210938 -0.01611328 2.28421875 -0.03222656 3.4609375 -0.04882812 C14.94233297 -0.05535165 24.94799374 1.9875289 34.625 8.3125 C35.5325 8.89 36.44 9.4675 37.375 10.0625 C43.12869695 15.81619695 45.67596944 22.77387661 45.9375 30.8125 C45.74752836 44.99704918 38.46045183 56.92794261 29.04296875 66.9921875 C14.62875905 80.8242401 -5.32430654 86.99424893 -25 87.5625 C-35.38941048 87.21554381 -45.40486739 85.59196591 -52.8828125 77.7265625 C-55.08621074 74.69111178 -55.375 73.14072952 -55.375 69.3125 C-50.88917989 69.73304564 -47.96957712 71.68371876 -44.33984375 74.15625 C-36.30770007 78.88291904 -23.5347547 76.90151628 -14.875 74.8125 C2.23520971 69.68124387 17.5420202 60.72017272 26.94140625 45.12890625 C29.89003426 39.36521177 30.71831391 33.71335601 29.625 27.3125 C26.81728095 21.98751559 22.97657066 19.83452543 17.296875 18.0078125 C3.25456391 15.34873657 -10.91350854 16.85781823 -24.375 21.3125 C-25.01034668 21.51617188 -25.64569336 21.71984375 -26.30029297 21.9296875 C-43.41880591 27.49696298 -59.22537167 36.23808197 -73.375 47.3125 C-74.23738281 47.97894531 -75.09976563 48.64539062 -75.98828125 49.33203125 C-85.13999381 56.88411674 -91.33380534 66.9829427 -92.8125 78.8125 C-90.86516182 94.39120542 -76.50732413 104.14753938 -65 113.125 C-64.392771 113.59333252 -63.78554199 114.06166504 -63.15991211 114.54418945 C-58.54154064 118.116307 -58.54154064 118.116307 -56.7734375 120.19921875 C-56.08121094 120.75029297 -56.08121094 120.75029297 -55.375 121.3125 C-49.73711035 120.60701391 -45.27945873 117.8224523 -40.375 115.125 C-39.04082031 114.42020508 -39.04082031 114.42020508 -37.6796875 113.70117188 C-32.3536691 110.78776032 -29.03432777 108.12395959 -25.375 103.3125 C-19.41852039 98.36607319 -13.65451146 94.16743182 -5.6875 94.4375 C-2.375 95.3125 -2.375 95.3125 -0.5 96.8125 C1.17154411 100.52704246 1.37498348 104.27775066 1.625 108.3125 C3.935 108.9725 6.245 109.6325 8.625 110.3125 C9.85676079 113.8594907 9.37617087 116.19080595 8.41015625 119.77734375 C8.13623047 120.82470703 7.86230469 121.87207031 7.58007812 122.95117188 C7.28552734 124.03978516 6.99097656 125.12839844 6.6875 126.25 C6.11042073 128.40349095 5.53860643 130.55840127 4.97265625 132.71484375 C4.71492432 133.66866943 4.45719238 134.62249512 4.19165039 135.60522461 C3.63582151 138.26079826 3.5190893 140.60886083 3.625 143.3125 C12.91816023 123.54188646 12.91816023 123.54188646 21.75 103.5625 C22.27968384 102.32560425 22.27968384 102.32560425 22.82006836 101.0637207 C24.39869075 97.33814104 25.86698335 93.62460483 27.1796875 89.796875 C27.65664062 88.64703125 28.13359375 87.4971875 28.625 86.3125 C31.55154527 85.33698491 33.57154996 85.14771912 36.625 85.125 C37.49125 85.11082031 38.3575 85.09664063 39.25 85.08203125 C41.625 85.3125 41.625 85.3125 44.625 87.3125 C44.295 88.323125 43.965 89.33375 43.625 90.375 C42.57468034 94.58383488 42.36685425 98.74290492 42.3125 103.0625 C42.28736328 104.97289063 42.28736328 104.97289063 42.26171875 106.921875 C42.65023282 110.54800635 43.37758069 111.5922721 45.625 114.3125 C47.7438862 110.36188115 49.84232713 106.4007388 51.9375 102.4375 C52.53240234 101.32890625 53.12730469 100.2203125 53.74023438 99.078125 C56.84583047 93.17922739 59.41472316 87.65096259 60.91088867 81.13623047 C61.14654541 80.53439941 61.38220215 79.93256836 61.625 79.3125 C64.87969015 78.22760328 67.33043209 78.17926008 70.75 78.1875 C71.82507813 78.18492188 72.90015625 78.18234375 74.0078125 78.1796875 C76.625 78.3125 76.625 78.3125 77.625 79.3125 C77.23002045 82.86731599 76.76329275 86.4013948 76.2265625 89.9375 C75.34486269 96.83435183 76.2879647 101.82202078 78.625 108.3125 C78.97487941 109.64158739 79.3139561 110.97379145 79.625 112.3125 C80.33785156 112.03535156 81.05070313 111.75820312 81.78515625 111.47265625 C94.73458649 106.57522705 107.41816397 105.50182439 120.625 110.3125 C128.32431697 114.26116634 134.69791749 119.99342338 137.625 128.3125 C138.47090148 135.70898001 138.31789285 141.38463535 133.625 147.3125 C130.56133978 149.85468614 128.73116247 151.21631196 124.75 151.5625 C124.04875 151.48 123.3475 151.3975 122.625 151.3125 C124.18388097 147.4861558 126.69627956 145.16612504 129.625 142.3125 C131.21043507 139.14162985 130.96565437 136.83259516 130.625 133.3125 C128.02331104 126.89337958 123.78405911 123.23745857 117.625 120.3125 C106.46152427 116.01885549 95.09985432 117.41570031 83.625 119.3125 C83.955 120.37597656 84.285 121.43945312 84.625 122.53515625 C86.0635889 127.96920103 86.12855519 132.4146445 83.49609375 137.48828125 C78.90056195 144.13740219 72.49986583 148.42937991 64.625 150.3125 C59.44343838 150.82049624 59.44343838 150.82049624 56.8125 149.1875 C54.73739239 145.9110143 54.31408045 143.06886468 54.9921875 139.23828125 C56.90827711 132.46100134 60.91131432 126.32579759 66.40625 121.8671875 C67.88780593 120.33896629 67.88780593 120.33896629 67.44140625 118.01953125 C66.52895889 114.99404788 65.5815823 111.99149967 64.5625 109 C64.20027344 107.93136719 63.83804688 106.86273438 63.46484375 105.76171875 C63.18769531 104.95347656 62.91054687 104.14523438 62.625 103.3125 C62.01011719 104.42109375 61.39523438 105.5296875 60.76171875 106.671875 C59.94546529 108.13550189 59.12905056 109.59903884 58.3125 111.0625 C57.90837891 111.79210937 57.50425781 112.52171875 57.08789062 113.2734375 C55.45048493 116.20213061 53.89700345 118.96839219 51.8125 121.60546875 C50.0811517 124.09428193 50.8133308 126.10857632 51.27734375 128.97265625 C52.34206107 136.13856269 52.70321319 142.46451183 48.30859375 148.52734375 C42.81973667 154.34731518 36.0570277 157.93504792 28.0390625 158.4921875 C23.09585369 158.6196628 23.09585369 158.6196628 20.625 158.3125 C18.625 156.3125 18.625 156.3125 18.1796875 153.5859375 C18.76712131 149.2677837 20.88743306 147.01668367 23.75 143.9375 C24.75752535 142.79386209 25.76404075 141.64933362 26.76953125 140.50390625 C27.72062161 139.43944918 28.67238487 138.37559273 29.625 137.3125 C32.99371696 133.57078239 32.99371696 133.57078239 35.625 129.3125 C35.38597486 126.33023585 35.38597486 126.33023585 33.625 123.3125 C32.8994258 121.36048882 32.19231054 119.40155491 31.5 117.4375 C30.87578415 115.72887998 30.25104585 114.02045034 29.625 112.3125 C26.85388445 115.08361555 25.75516336 118.44400394 24.25 122 C20.91911419 129.65267465 17.31027401 137.13715288 13.5 144.5625 C13.00967285 145.53791748 12.5193457 146.51333496 12.01416016 147.51831055 C5.64455368 159.78124146 5.64455368 159.78124146 -1 162.3125 C-3.7935378 162.3125 -5.11280619 161.95064034 -7.375 160.3125 C-9.95277475 156.78501876 -9.95262312 152.53626877 -10.375 148.3125 C-10.82230469 149.20453125 -11.26960938 150.0965625 -11.73046875 151.015625 C-12.63732422 152.77132812 -12.63732422 152.77132812 -13.5625 154.5625 C-14.15417969 155.72265625 -14.74585937 156.8828125 -15.35546875 158.078125 C-17.41038944 161.36917786 -19.13974959 163.20831352 -22.375 165.3125 C-26.64656655 165.99900177 -28.52811764 165.9230431 -32.0625 163.375 C-40.75849101 151.85868758 -40.23958338 139.06380244 -38.375 125.3125 C-41.345 126.9625 -44.315 128.6125 -47.375 130.3125 C-47.21644531 131.11300781 -47.05789062 131.91351563 -46.89453125 132.73828125 C-44.74071566 147.55588478 -45.86814841 160.88520888 -54.75390625 173.31640625 C-61.28332512 181.3562449 -71.06207614 186.92834576 -81.375 188.3125 C-87.31013936 188.75318175 -92.81328516 188.64842023 -98.375 186.3125 C-103.09392546 181.46603601 -104.68588331 177.40563255 -104.8125 170.6875 C-104.62266239 161.03575629 -101.50205025 155.29136727 -95 148.3125 C-86.28444332 140.03988641 -75.87429647 134.02533041 -65.375 128.3125 C-66.45136719 127.56226562 -67.52773437 126.81203125 -68.63671875 126.0390625 C-107.10122935 99.13381196 -107.10122935 99.13381196 -112.375 83.3125 C-113.55418001 68.4470996 -109.52603757 59.73483826 -100.375 48.3125 C-99.42367187 47.09433594 -99.42367187 47.09433594 -98.453125 45.8515625 C-76.23567587 19.24229203 -34.43171684 -0.09650145 0 0 Z M-14.39453125 108.93359375 C-21.43306866 117.38816827 -25.49928435 127.96397827 -25.5625 138.875 C-25.57667969 139.99003906 -25.59085937 141.10507813 -25.60546875 142.25390625 C-25.38367189 145.19741377 -24.9087001 146.8331192 -23.375 149.3125 C-20.12639081 146.39781981 -18.49576982 143.85347371 -16.90234375 139.8046875 C-16.47759766 138.73476562 -16.05285156 137.66484375 -15.61523438 136.5625 C-15.18533203 135.44875 -14.75542969 134.335 -14.3125 133.1875 C-13.87873047 132.09695312 -13.44496094 131.00640625 -12.99804688 129.8828125 C-7.99062655 117.95614643 -7.99062655 117.95614643 -6.375 105.3125 C-10.06868335 105.3125 -11.67485307 106.52705549 -14.39453125 108.93359375 Z M72.625 126.3125 C69.15192252 129.82607984 65.84648301 133.42656795 64.625 138.3125 C64.955 139.3025 65.285 140.2925 65.625 141.3125 C66.77426266 140.35828192 67.91930541 139.39897955 69.0625 138.4375 C69.70058594 137.90382812 70.33867187 137.37015625 70.99609375 136.8203125 C72.73305004 135.3902243 72.73305004 135.3902243 73.625 133.3125 C73.66522391 130.9795134 73.66820247 128.64543334 73.625 126.3125 C73.295 126.3125 72.965 126.3125 72.625 126.3125 Z M-82.375 152.3125 C-86.80922962 157.95606497 -89.02844388 162.99392853 -88.375 170.3125 C-86.99260705 172.51676487 -86.99260705 172.51676487 -84.375 173.3125 C-76.71440326 173.3125 -71.66516657 170.46680691 -66.19921875 165.2265625 C-59.85781898 158.43303368 -56.58019914 152.16067555 -56.25 142.75 C-56.34889242 140.03045858 -56.55378806 137.87878731 -57.375 135.3125 C-64.96880977 135.3125 -77.11567799 147.30611388 -82.375 152.3125 Z M38.625 138.3125 C36.315 140.9525 34.005 143.5925 31.625 146.3125 C31.955 146.9725 32.285 147.6325 32.625 148.3125 C34.935 145.6725 37.245 143.0325 39.625 140.3125 C39.295 139.6525 38.965 138.9925 38.625 138.3125 Z " fill="#CD6699" transform="translate(112.375,-0.3125)"/>
</svg>
