<?xml version="1.0" encoding="UTF-8"?>
<svg version="1.1" xmlns="http://www.w3.org/2000/svg" width="960" height="587">
<path d="M0 0 C3.45727496 0.0031476 6.91368028 -0.02035494 10.37084961 -0.0456543 C30.78073393 -0.10445126 51.09999753 1.51748853 71.04858398 6.00317383 C72.77214111 6.3833667 72.77214111 6.3833667 74.53051758 6.77124023 C116.78321604 16.46105291 153.33459078 37.16085011 185.92358398 65.31567383 C186.6415918 65.9318457 187.35959961 66.54801758 188.09936523 67.18286133 C198.03745933 75.78353075 207.53803235 84.78671879 216.77124023 94.13598633 C217.75868692 95.13041475 218.74652493 96.12445473 219.73472595 97.11813354 C223.86181738 101.26923011 227.98292768 105.42622702 232.09960938 109.58764648 C234.64427028 112.15941326 237.19405054 114.72601731 239.74682426 117.28973007 C241.15897528 118.71090342 242.56544315 120.13771689 243.97169495 121.56472778 C249.1993254 126.812398 254.58715815 131.66205167 260.3813324 136.27853394 C263.03036693 138.40124042 265.60232945 140.59972736 268.17358398 142.81567383 C297.18420161 166.46921717 334.25876313 174.40847978 371.0168457 171.03149414 C401.80331913 167.0393667 430.0889638 151.29735317 452.18920898 129.90942383 C454.92358398 127.31567383 454.92358398 127.31567383 457.57983398 125.19848633 C459.72111667 123.47832257 461.40969921 121.78417343 463.17358398 119.69067383 C465.8690139 116.53233312 468.62146708 113.44239351 471.42358398 110.37817383 C475.50142687 105.8666667 479.27210817 101.17648086 482.92358398 96.31567383 C484.20439281 99.92959419 483.62845852 102.24448421 482.55249023 105.87426758 C482.22958008 106.97198486 481.90666992 108.06970215 481.57397461 109.20068359 C481.2149707 110.37300537 480.8559668 111.54532715 480.48608398 112.75317383 C480.12063477 113.96223389 479.75518555 115.17129395 479.37866211 116.41699219 C476.04702496 127.25267057 472.25108048 137.84014783 467.92358398 148.31567383 C467.44453613 149.48018066 467.44453613 149.48018066 466.95581055 150.66821289 C455.31582802 178.63962267 438.80425238 203.42760477 417.92358398 225.31567383 C417.12436523 226.16774414 416.32514648 227.01981445 415.50170898 227.89770508 C408.86477636 234.78406491 401.61435374 240.66299927 393.92358398 246.31567383 C393.35575195 246.73316895 392.78791992 247.15066406 392.20288086 247.58081055 C373.55370975 261.07523086 352.78778455 270.37709468 330.92358398 277.31567383 C330.11034668 277.57429199 329.29710937 277.83291016 328.45922852 278.09936523 C306.36092356 284.92321588 282.29192721 288.41887994 259.20483398 288.51879883 C257.57263161 288.52938828 257.57263161 288.52938828 255.90745544 288.54019165 C210.09751395 288.76996066 210.09751395 288.76996066 190.92358398 285.31567383 C189.23700684 285.01765869 189.23700684 285.01765869 187.51635742 284.71362305 C139.63138514 275.96855629 98.57385732 254.97918606 61.92358398 223.31567383 C61.20557617 222.69950195 60.48756836 222.08333008 59.74780273 221.44848633 C49.80970864 212.8478169 40.30913561 203.84462887 31.07592773 194.49536133 C30.08848104 193.50093291 29.10064303 192.50689293 28.11244202 191.51321411 C23.98535059 187.36211754 19.86424029 183.20512063 15.74755859 179.04370117 C13.20289769 176.47193439 10.65311743 173.90533035 8.1003437 171.34161758 C6.68819269 169.92044423 5.28172482 168.49363076 3.87547302 167.06661987 C-1.35215743 161.81894965 -6.73999018 156.96929599 -12.53416443 152.35281372 C-15.18319896 150.23010724 -17.75516148 148.0316203 -20.32641602 145.81567383 C-49.33703364 122.16213048 -86.41159516 114.22286787 -123.16967773 117.59985352 C-153.95615116 121.59198096 -182.24179583 137.33399449 -204.34204102 158.72192383 C-207.07641602 161.31567383 -207.07641602 161.31567383 -209.73266602 163.43286133 C-211.8739487 165.15302509 -213.56253124 166.84717422 -215.32641602 168.94067383 C-218.02184593 172.09901454 -220.77429911 175.18895415 -223.57641602 178.25317383 C-227.6542589 182.76468096 -231.4249402 187.4548668 -235.07641602 192.31567383 C-236.35722484 188.70175347 -235.78129056 186.38686345 -234.70532227 182.75708008 C-234.38233154 181.65920166 -234.05934082 180.56132324 -233.7265625 179.43017578 C-233.36763916 178.25801514 -233.00871582 177.08585449 -232.63891602 175.87817383 C-232.27419189 174.67056396 -231.90946777 173.4629541 -231.53369141 172.21875 C-228.20300695 161.37990033 -224.36927758 150.80685629 -220.07641602 140.31567383 C-219.79475586 139.61474609 -219.5130957 138.91381836 -219.22290039 138.19165039 C-207.87747975 110.12594992 -190.90864242 85.15296379 -170.07641602 63.31567383 C-169.27719727 62.46360352 -168.47797852 61.6115332 -167.65454102 60.73364258 C-137.77441604 29.73057172 -96.5315867 12.76195609 -54.95141602 4.56567383 C-53.95215088 4.3669165 -52.95288574 4.16815918 -51.92333984 3.96337891 C-34.65564872 0.7304503 -17.53988252 -0.03321714 0 0 Z " fill="#37BDF8" transform="translate(236.076416015625,287.684326171875)"/>
<path d="M0 0 C3.45727496 0.0031476 6.91368028 -0.02035494 10.37084961 -0.0456543 C30.78073393 -0.10445126 51.09999753 1.51748853 71.04858398 6.00317383 C72.77214111 6.3833667 72.77214111 6.3833667 74.53051758 6.77124023 C116.78321604 16.46105291 153.33459078 37.16085011 185.92358398 65.31567383 C186.6415918 65.9318457 187.35959961 66.54801758 188.09936523 67.18286133 C198.03745933 75.78353075 207.53803235 84.78671879 216.77124023 94.13598633 C217.75868692 95.13041475 218.74652493 96.12445473 219.73472595 97.11813354 C223.86181738 101.26923011 227.98292768 105.42622702 232.09960938 109.58764648 C234.64427028 112.15941326 237.19405054 114.72601731 239.74682426 117.28973007 C241.15897528 118.71090342 242.56544315 120.13771689 243.97169495 121.56472778 C249.1993254 126.812398 254.58715815 131.66205167 260.3813324 136.27853394 C263.03036693 138.40124042 265.60232945 140.59972736 268.17358398 142.81567383 C297.18420161 166.46921717 334.25876313 174.40847978 371.0168457 171.03149414 C401.80331913 167.0393667 430.0889638 151.29735317 452.18920898 129.90942383 C454.92358398 127.31567383 454.92358398 127.31567383 457.57983398 125.19848633 C459.72111667 123.47832257 461.40969921 121.78417343 463.17358398 119.69067383 C465.8690139 116.53233312 468.62146708 113.44239351 471.42358398 110.37817383 C475.50142687 105.8666667 479.27210817 101.17648086 482.92358398 96.31567383 C484.20439281 99.92959419 483.62845852 102.24448421 482.55249023 105.87426758 C482.22958008 106.97198486 481.90666992 108.06970215 481.57397461 109.20068359 C481.2149707 110.37300537 480.8559668 111.54532715 480.48608398 112.75317383 C480.12063477 113.96223389 479.75518555 115.17129395 479.37866211 116.41699219 C476.04702496 127.25267057 472.25108048 137.84014783 467.92358398 148.31567383 C467.44453613 149.48018066 467.44453613 149.48018066 466.95581055 150.66821289 C455.31582802 178.63962267 438.80425238 203.42760477 417.92358398 225.31567383 C417.12436523 226.16774414 416.32514648 227.01981445 415.50170898 227.89770508 C408.86477636 234.78406491 401.61435374 240.66299927 393.92358398 246.31567383 C393.35575195 246.73316895 392.78791992 247.15066406 392.20288086 247.58081055 C373.55370975 261.07523086 352.78778455 270.37709468 330.92358398 277.31567383 C330.11034668 277.57429199 329.29710937 277.83291016 328.45922852 278.09936523 C306.36092356 284.92321588 282.29192721 288.41887994 259.20483398 288.51879883 C257.57263161 288.52938828 257.57263161 288.52938828 255.90745544 288.54019165 C210.09751395 288.76996066 210.09751395 288.76996066 190.92358398 285.31567383 C189.23700684 285.01765869 189.23700684 285.01765869 187.51635742 284.71362305 C139.63138514 275.96855629 98.57385732 254.97918606 61.92358398 223.31567383 C61.20557617 222.69950195 60.48756836 222.08333008 59.74780273 221.44848633 C49.80970864 212.8478169 40.30913561 203.84462887 31.07592773 194.49536133 C30.08848104 193.50093291 29.10064303 192.50689293 28.11244202 191.51321411 C23.98535059 187.36211754 19.86424029 183.20512063 15.74755859 179.04370117 C13.20289769 176.47193439 10.65311743 173.90533035 8.1003437 171.34161758 C6.68819269 169.92044423 5.28172482 168.49363076 3.87547302 167.06661987 C-1.35215743 161.81894965 -6.73999018 156.96929599 -12.53416443 152.35281372 C-15.18319896 150.23010724 -17.75516148 148.0316203 -20.32641602 145.81567383 C-49.33703364 122.16213048 -86.41159516 114.22286787 -123.16967773 117.59985352 C-153.95615116 121.59198096 -182.24179583 137.33399449 -204.34204102 158.72192383 C-207.07641602 161.31567383 -207.07641602 161.31567383 -209.73266602 163.43286133 C-211.8739487 165.15302509 -213.56253124 166.84717422 -215.32641602 168.94067383 C-218.02184593 172.09901454 -220.77429911 175.18895415 -223.57641602 178.25317383 C-227.6542589 182.76468096 -231.4249402 187.4548668 -235.07641602 192.31567383 C-236.35722484 188.70175347 -235.78129056 186.38686345 -234.70532227 182.75708008 C-234.38233154 181.65920166 -234.05934082 180.56132324 -233.7265625 179.43017578 C-233.36763916 178.25801514 -233.00871582 177.08585449 -232.63891602 175.87817383 C-232.27419189 174.67056396 -231.90946777 173.4629541 -231.53369141 172.21875 C-228.20300695 161.37990033 -224.36927758 150.80685629 -220.07641602 140.31567383 C-219.79475586 139.61474609 -219.5130957 138.91381836 -219.22290039 138.19165039 C-207.87747975 110.12594992 -190.90864242 85.15296379 -170.07641602 63.31567383 C-169.27719727 62.46360352 -168.47797852 61.6115332 -167.65454102 60.73364258 C-137.77441604 29.73057172 -96.5315867 12.76195609 -54.95141602 4.56567383 C-53.95215088 4.3669165 -52.95288574 4.16815918 -51.92333984 3.96337891 C-34.65564872 0.7304503 -17.53988252 -0.03321714 0 0 Z " fill="#37BDF8" transform="translate(476.076416015625,-0.315673828125)"/>
</svg>
