<?xml version="1.0" encoding="UTF-8"?>
<svg version="1.1" xmlns="http://www.w3.org/2000/svg" width="250" height="250">
<path d="M0 0 C82.5 0 165 0 250 0 C250 82.5 250 165 250 250 C167.5 250 85 250 0 250 C0 167.5 0 85 0 0 Z " fill="#3178C5" transform="translate(0,0)"/>
<path d="M0 0 C1.22396484 -0.00773437 2.44792969 -0.01546875 3.70898438 -0.0234375 C12.62297485 -0.00425732 19.79521763 0.94308705 28.0625 4.25 C28.0625 11.84 28.0625 19.43 28.0625 27.25 C20.375 24.3125 20.375 24.3125 17.98168945 23.39086914 C8.99069802 19.98841151 -0.81915679 18.16838786 -10 22 C-14.35061923 24.2478766 -14.35061923 24.2478766 -16.9375 28.25 C-16.9375 32.41335581 -16.54826693 34.52777095 -13.83984375 37.73046875 C-10.56726712 40.57140001 -7.39509391 42.29896867 -3.5 44.125 C-2.80277832 44.46378174 -2.10555664 44.80256348 -1.38720703 45.15161133 C0.75832568 46.19377579 2.90956971 47.22321786 5.0625 48.25 C7.60936416 49.46876376 10.14990995 50.69956709 12.6875 51.9375 C13.77289063 52.45699219 14.85828125 52.97648437 15.9765625 53.51171875 C23.80933473 57.92384994 28.52656264 64.0628554 32.4375 72.0625 C34.46267439 82.39088937 33.06139082 92.1393895 27.8828125 101.34765625 C23.68758769 106.99507426 17.40738011 109.61627618 11.0625 112.25 C10.25425781 112.59289062 9.44601563 112.93578125 8.61328125 113.2890625 C-7.6160797 118.88178914 -28.73081281 116.00852764 -43.9375 109.25 C-43.9375 101 -43.9375 92.75 -43.9375 84.25 C-41.10546875 85.97526042 -38.2734375 87.70052083 -35.44140625 89.42578125 C-28.14765388 93.223086 -21.57863653 94.77661358 -13.375 94.75 C-12.57642578 94.77835937 -11.77785156 94.80671875 -10.95507812 94.8359375 C-4.84848034 94.85584491 -0.63452171 93.18977921 4.0625 89.25 C5.63185594 86.11128812 5.41451103 83.71144178 5.0625 80.25 C-0.2958601 73.21715237 -8.98190016 69.62670046 -16.9375 66.3125 C-27.79335556 61.61450263 -37.00911923 55.8675627 -42.60546875 45.015625 C-45.45628887 36.95641505 -45.5333196 26.56105647 -42 18.6875 C-36.62244336 9.77047812 -28.27794385 4.29009652 -18.5625 1.1640625 C-12.46223458 -0.30440236 -6.23660525 -0.0392857 0 0 Z " fill="#FCFDFE" transform="translate(192.9375,112.75)"/>
<path d="M0 0 C29.37 0 58.74 0 89 0 C89 6.93 89 13.86 89 21 C78.44 21 67.88 21 57 21 C57 51.03 57 81.06 57 112 C48.75 112 40.5 112 32 112 C32 81.97 32 51.94 32 21 C21.44 21 10.88 21 0 21 C0 14.07 0 7.14 0 0 Z " fill="#FCFDFE" transform="translate(50,112)"/>
<path d="M0 0 C2.97 0 5.94 0 9 0 C8.2575 0.556875 7.515 1.11375 6.75 1.6875 C4.08292005 3.93027178 2.08443768 6.22074975 0 9 C0 6.03 0 3.06 0 0 Z " fill="#3A5D83" transform="translate(0,0)"/>
</svg>
