<?xml version="1.0" standalone="no"?>
<!DOCTYPE svg PUBLIC "-//W3C//DTD SVG 20010904//EN"
 "http://www.w3.org/TR/2001/REC-SVG-20010904/DTD/svg10.dtd">
<svg version="1.0" xmlns="http://www.w3.org/2000/svg"
 width="512.000000pt" height="512.000000pt" viewBox="0 0 512.000000 512.000000"
 preserveAspectRatio="xMidYMid meet">

<g transform="translate(0.000000,512.000000) scale(0.100000,-0.100000)"
fill="#000000" stroke="none">
<path d="M3685 4898 c-207 -255 -323 -376 -450 -470 -267 -199 -638 -347 -962
-383 -73 -8 -68 11 -53 -186 56 -715 295 -1410 703 -2042 38 -59 72 -107 75
-107 4 0 225 681 492 1513 266 831 512 1599 546 1705 l62 192 -117 -1 -116 0
-180 -221z"/>
<path d="M1378 4413 c-29 -917 173 -1870 575 -2716 36 -75 72 -137 79 -137 7
0 31 5 53 11 22 6 172 14 332 18 l293 6 -73 115 c-341 539 -561 1107 -667
1725 -41 240 -51 382 -57 768 l-5 377 -263 0 -262 0 -5 -167z"/>
<path d="M2135 1274 c-106 -22 -239 -91 -323 -169 -64 -59 -152 -173 -152
-196 0 -5 373 -9 875 -9 481 0 875 4 875 8 0 21 -104 154 -161 205 -78 71
-216 140 -321 161 -106 22 -688 21 -793 0z"/>
<path d="M1115 578 c-2 -13 -23 -138 -45 -278 -22 -140 -42 -265 -45 -278 l-5
-22 1510 0 c1482 0 1510 0 1510 19 0 11 -20 144 -45 295 -25 152 -45 279 -45
281 0 3 -637 5 -1415 5 l-1415 0 -5 -22z"/>
</g>
</svg>
