<svg xmlns="http://www.w3.org/2000/svg" viewBox="0 0 200 200" width="400" height="400">

<defs>

<linearGradient id="grad" x1="200" y1="0" x2="0" y2="200" gradientUnits="userSpaceOnUse">
<stop offset="0%" stop-color="#2b8bfe"/>
<stop offset="100%" stop-color="#60efff"/>
</linearGradient>

<mask id="shapeMask" maskUnits="userSpaceOnUse">
<path fill="white" d="M193.481 31.456c13.436 23.267 5.44 52.966-17.886 66.43l-1.522.88c-15.647 9.031-25.278 25.67-25.278 43.672v2.001c0 26.82-21.845 48.561-48.793 48.561s-48.794-21.741-48.794-48.561v-1.998c0-18.002-9.631-34.642-25.278-43.674l-1.525-.88C1.079 84.423-6.917 54.723 6.519 31.456 20.031 8.058 50.078.046 73.534 13.586l1.205.695a50.559 50.559 0 0050.522 0l1.205-.696c23.456-13.54 53.503-5.527 67.015 17.87z"/>
</mask>

<filter id="grain">
<feTurbulence baseFrequency="0.6" numOctaves="5" seed="4"/>
</filter>

</defs>

<!-- gradient shape -->
<g mask="url(#shapeMask)">
<rect width="200" height="200" fill="url(#grad)"/>
</g>

<!-- grain overlay -->
<g mask="url(#shapeMask)" style="mix-blend-mode:overlay">
<rect width="200" height="200" fill="gray" filter="url(#grain)"/>
</g>

</svg>