<?xml version="1.0" standalone="no"?>
<!DOCTYPE svg PUBLIC "-//W3C//DTD SVG 20010904//EN"
 "http://www.w3.org/TR/2001/REC-SVG-20010904/DTD/svg10.dtd">
<svg version="1.0" xmlns="http://www.w3.org/2000/svg"
 width="80.000000pt" height="200.000000pt" viewBox="0 0 252.000000 312.000000"
 preserveAspectRatio="xMidYMid meet">

<g transform="translate(530.000000,412.000000) scale(-0.100000,-0.100000)"
fill="#6f6f6f" stroke="none">
<path d="M3196 4950 c-61 -18 -60 -55 0 -163 166 -294 363 -477 638 -593 60
-25 75 -37 115 -91 25 -35 59 -86 75 -114 25 -45 26 -51 10 -44 -109 47 -218
58 -325 33 -84 -19 -192 -78 -203 -110 -14 -40 4 -67 119 -183 191 -192 370
-268 583 -246 35 4 65 4 67 1 2 -3 17 -56 34 -118 l30 -113 -34 30 c-105 92
-248 132 -395 111 -80 -11 -123 -34 -128 -67 -2 -12 17 -65 42 -118 127 -272
296 -431 513 -483 l73 -17 0 -120 0 -120 -34 51 c-74 110 -187 181 -333 211
-146 31 -164 8 -133 -170 51 -299 159 -482 363 -611 42 -27 57 -42 53 -54 -40
-139 -60 -201 -66 -195 -3 4 -14 33 -23 64 -36 118 -137 235 -259 298 -65 33
-118 40 -137 17 -7 -8 -19 -57 -28 -108 -19 -116 -12 -344 12 -433 32 -116 94
-230 172 -316 l33 -37 -65 -98 -65 -99 0 81 c0 147 -57 273 -173 382 -80 74
-112 71 -156 -17 -16 -31 -43 -95 -60 -143 -76 -216 -81 -385 -17 -568 20 -58
39 -112 42 -121 7 -20 -136 -137 -284 -234 -102 -66 -103 -68 -100 -104 2 -28
9 -39 30 -49 23 -11 32 -10 60 4 60 31 203 131 291 203 l86 72 49 -35 c188
-136 409 -118 629 50 111 85 237 228 257 291 10 32 -9 60 -56 84 -145 74 -315
84 -463 28 -27 -10 -51 -19 -52 -19 -1 0 30 46 67 101 38 56 71 107 73 113 2
7 21 6 58 -6 128 -39 244 -28 362 34 74 39 206 166 262 253 60 91 113 207 131
281 24 104 1 124 -145 124 -127 0 -255 -46 -367 -130 l-51 -38 34 116 c19 65
36 123 39 129 2 8 23 13 56 13 174 1 346 119 435 300 50 101 89 230 108 360
35 228 9 269 -140 220 -120 -40 -242 -135 -324 -251 l-46 -65 2 134 2 135 56
22 c149 61 261 198 310 380 40 144 26 451 -25 588 -36 96 -86 89 -206 -32 -83
-83 -154 -198 -190 -307 l-27 -86 -35 126 -34 126 64 62 c175 173 213 427 109
728 -40 116 -67 174 -114 247 -69 105 -100 105 -167 1 -76 -117 -130 -304
-130 -452 l0 -61 -36 60 c-20 33 -51 81 -70 106 -24 33 -38 68 -49 124 -75
360 -322 603 -659 645 -92 11 -100 11 -140 0z m254 -150 c170 -57 311 -197
382 -380 48 -123 51 -118 -43 -69 -187 97 -316 220 -444 423 l-38 59 43 -7
c23 -4 69 -15 100 -26z m1005 -586 c71 -215 53 -397 -52 -536 -21 -26 -42 -48
-48 -48 -27 0 -78 288 -78 440 0 127 16 212 59 306 l26 59 34 -71 c18 -40 45
-107 59 -150z m-482 -376 c32 -15 81 -51 112 -81 51 -52 135 -169 135 -190 0
-6 -40 -8 -105 -5 -98 4 -110 7 -188 46 -123 61 -288 208 -255 228 67 41 213
42 301 2z m826 -383 c36 -301 -29 -511 -193 -617 -32 -21 -62 -36 -65 -32 -8
7 -3 129 10 243 15 132 42 232 89 327 41 83 127 192 141 177 4 -4 12 -48 18
-98z m-654 -255 c68 -33 133 -101 177 -185 36 -70 85 -212 75 -221 -8 -8 -127
35 -174 63 -71 41 -140 110 -197 196 -51 78 -96 158 -96 173 0 3 37 4 83 2 60
-3 95 -10 132 -28z m765 -760 c-43 -210 -118 -347 -231 -420 -54 -35 -129 -60
-179 -60 -18 0 -18 5 11 88 43 123 121 283 174 358 51 71 107 121 186 164 l54
29 3 -28 c2 -15 -6 -74 -18 -131z m-785 94 c142 -67 215 -197 231 -414 9 -121
5 -129 -48 -91 -141 97 -231 253 -272 469 l-14 72 27 -6 c14 -3 49 -17 76 -30z
m-128 -673 c56 -44 103 -113 127 -184 29 -87 16 -286 -25 -389 l-11 -27 -23
27 c-81 97 -133 236 -142 381 -6 103 3 231 17 231 4 0 30 -17 57 -39z m803
-240 c0 -23 -66 -153 -116 -227 -118 -178 -267 -262 -414 -234 -30 6 -58 14
-62 18 -12 12 119 181 211 272 51 50 111 98 148 117 85 46 233 80 233 54z
m-1063 -428 c74 -149 49 -329 -68 -500 l-33 -47 -19 42 c-25 59 -47 165 -47
233 0 80 27 211 62 302 29 76 30 78 49 61 11 -10 36 -51 56 -91z m617 -426
c22 -7 41 -17 43 -22 5 -16 -151 -169 -218 -214 -147 -98 -300 -109 -423 -29
-20 12 -36 26 -36 30 0 13 163 126 244 169 44 23 105 50 135 60 65 21 196 24
255 6z"/>
</g>
</svg>
