<svg xmlns="http://www.w3.org/2000/svg"
     viewBox="0 0 512 512"
     preserveAspectRatio="xMidYMid meet">

  <defs>
    <!-- Gradient -->
    <linearGradient id="grad" x1="512" y1="0" x2="0" y2="512" gradientUnits="userSpaceOnUse">
      <stop offset="0%" stop-color="#38bdf8"/>
      <stop offset="100%" stop-color="#6366f1"/>
    </linearGradient>

    <!-- Grain -->
    <filter id="grain">
      <feTurbulence baseFrequency="0.6" numOctaves="5" seed="4"/>
    </filter>

    <!-- Mask (ALL shapes) -->
    <mask id="shapeMask">
      <g transform="translate(0,512) scale(0.1,-0.1)" fill="white">

        <path d="M4249 4671 c-13 -10 -39 -50 -58 -88 l-33 -70 -86 -13 c-102 -15 -132 -37 -132 -97 0 -33 7 -45 65 -100 l66 -63 -15 -85 c-20 -111 -8 -144 55 -160 20 -5 47 4 108 35 l82 41 83 -42 c94 -46 123 -46 159 3 19 25 19 30 5 115 l-15 88 66 67 c55 57 65 73 65 103 0 56 -29 77 -132 95 l-87 15 -41 78 c-22 44 -47 83 -55 88 -24 15 -75 10 -100 -10z"/>

        <path d="M3145 3953 c-32 -8 -45 -23 -82 -97 -19 -39 -37 -73 -39 -75 -2 -2 -43 -10 -90 -17 -93 -14 -119 -29 -129 -74 -8 -38 6 -63 73 -132 l56 -58 -12 -70 c-17 -99 -15 -118 13 -145 35 -36 77 -32 161 14 l72 39 68 -39 c82 -46 130 -50 162 -16 25 27 28 70 11 161 l-10 58 65 68 c74 77 83 109 43 155 -19 23 -36 29 -107 39 l-85 12 -41 78 c-23 43 -47 82 -55 86 -24 13 -53 18 -74 13z"/>

        <path d="M3949 3617 c-9 -7 -21 -22 -27 -34 -17 -30 -17 -3071 -1 -3106 20 -45 41 -47 390 -47 l330 0 24 25 25 24 0 1551 0 1551 -25 24 -24 25 -338 0 c-250 -1 -342 -4 -354 -13z"/>

        <path d="M1931 3261 c-8 -5 -33 -44 -55 -88 l-41 -78 -85 -13 c-87 -13 -115 -28 -131 -70 -13 -34 10 -79 73 -140 l55 -53 -15 -86 c-17 -100 -10 -125 43 -150 l35 -17 83 44 84 43 84 -42 c77 -38 87 -41 117 -30 19 6 39 23 48 40 13 26 13 39 0 116 l-16 86 65 61 c59 56 65 65 65 102 0 62 -28 82 -132 96 l-86 11 -33 70 c-19 39 -43 79 -53 89 -21 19 -81 24 -105 9z"/>

        <path d="M2779 2621 l-29 -29 0 -1057 0 -1056 25 -24 24 -25 341 0 341 0 24 25 25 24 0 1060 0 1059 -31 26 -31 26 -330 0 -330 0 -29 -29z"/>

        <path d="M732 2568 c-11 -13 -35 -53 -52 -90 l-31 -66 -86 -12 c-103 -15 -133 -37 -133 -96 0 -31 9 -45 65 -103 l65 -67 -15 -83 c-16 -90 -10 -119 27 -145 34 -24 57 -20 141 24 l76 40 85 -42 c95 -47 121 -46 159 4 19 26 19 30 5 115 l-15 88 66 67 c56 58 65 73 65 104 0 56 -34 79 -137 94 l-84 12 -39 80 c-21 44 -47 84 -56 89 -31 17 -83 10 -106 -13z"/>

        <path d="M1615 2035 l-25 -24 0 -766 0 -766 25 -24 24 -25 339 0 339 0 27 26 26 27 0 764 0 764 -25 24 -24 25 -341 0 -341 0 -24 -25z"/>

        <path d="M455 1405 l-25 -24 0 -451 0 -451 25 -24 24 -25 330 0 c349 0 370 2 390 47 7 16 11 162 11 459 l0 436 -29 29 -29 29 -337 0 -336 0 -24 -25z"/>

      </g>
    </mask>
  </defs>

  <!-- Gradient -->
  <g mask="url(#shapeMask)">
    <rect width="512" height="512" fill="url(#grad)"/>
  </g>

  <!-- Grain -->
  <g mask="url(#shapeMask)" style="mix-blend-mode: overlay;">
    <rect width="512" height="512"
          fill="gray"
          filter="url(#grain)"
          opacity="0.35"/>
  </g>

</svg>