<svg xmlns="http://www.w3.org/2000/svg"
     viewBox="0 0 512 512"
     preserveAspectRatio="xMidYMid meet">

  <defs>
    <!-- Gradient -->
    <linearGradient id="grad" x1="512" y1="0" x2="0" y2="512" gradientUnits="userSpaceOnUse">
      <stop offset="0%" stop-color="#2b8bfe"/>
      <stop offset="100%" stop-color="#a855f7"/>
    </linearGradient>

    <!-- Grain -->
    <filter id="grain">
      <feTurbulence baseFrequency="0.6" numOctaves="5" seed="4"/>
    </filter>

    <!-- Mask (ALL your paths) -->
    <mask id="shapeMask">
      <g transform="translate(0,512) scale(0.1,-0.1)" fill="white">

        <path d="M2459 5106 c-137 -38 -300 -178 -421 -361 -149 -225 -291 -575 -373 -917 l-23 -98 918 0 918 0 -23 98 c-82 342 -224 693 -373 917 -84 127 -224 268 -311 314 -112 59 -212 74 -312 47z"/>
        <path d="M1715 4976 c-161 -58 -231 -87 -355 -153 -445 -236 -796 -584 -1048 -1035 l-32 -58 527 0 528 0 43 178 c98 404 246 764 416 1012 70 102 69 100 54 99 -7 0 -67 -19 -133 -43z"/>
        <path d="M3267 5007 c4 -7 31 -46 59 -87 170 -249 327 -633 420 -1027 l38 -163 528 0 527 0 -46 83 c-304 549 -807 966 -1416 1174 -109 37 -122 39 -110 20z"/>
        <path d="M120 3333 c-83 -259 -114 -470 -114 -773 0 -303 31 -514 114 -772 l31 -98 566 0 566 0 -6 58 c-31 284 -38 370 -46 576 -6 144 -6 328 0 472 8 206 15 292 46 577 l6 57 -566 0 -566 0 -31 -97z"/>
        <path d="M1586 3413 c-7 -24 -33 -269 -47 -433 -14 -178 -14 -657 0 -840 12 -151 38 -389 46 -427 l5 -23 970 0 c914 0 969 1 974 18 3 9 15 102 26 206 44 403 44 889 0 1292 -11 104 -23 197 -26 207 -5 16 -60 17 -974 17 -914 0 -969 -1 -974 -17z"/>
        <path d="M3843 3373 c32 -287 38 -375 46 -579 5 -133 5 -335 0 -468 -8 -204 -14 -292 -46 -578 l-6 -58 566 0 566 0 35 110 c71 225 116 517 116 760 0 243 -45 535 -116 760 l-35 110 -566 0 -566 0 6 -57z"/>
        <path d="M327 1308 c265 -480 715 -887 1211 -1096 122 -51 311 -117 317 -110 2 2 -22 42 -54 88 -177 257 -333 637 -427 1038 l-38 162 -528 0 -527 0 46 -82z"/>
        <path d="M1665 1293 c58 -242 136 -465 236 -673 94 -193 182 -324 293 -435 249 -247 484 -247 731 0 215 214 386 561 510 1038 l43 167 -918 0 -918 0 23 -97z"/>
        <path d="M3743 1217 c-100 -410 -236 -743 -408 -1002 -40 -60 -70 -111 -66 -113 4 -1 52 13 107 31 609 207 1113 625 1417 1175 l46 82 -527 0 -527 0 -42 -173z"/>

      </g>
    </mask>
  </defs>

  <!-- Gradient (clipped) -->
  <g mask="url(#shapeMask)">
    <rect width="512" height="512" fill="url(#grad)"/>
  </g>

  <!-- Grain (clipped) -->
  <g mask="url(#shapeMask)" style="mix-blend-mode: overlay;">
    <rect width="512" height="512"
          fill="gray"
          filter="url(#grain)"
          opacity="0.35"/>
  </g>

</svg>