<?xml version="1.0" standalone="no"?>
<!DOCTYPE svg PUBLIC "-//W3C//DTD SVG 20010904//EN"
 "http://www.w3.org/TR/2001/REC-SVG-20010904/DTD/svg10.dtd">
<svg version="1.0" xmlns="http://www.w3.org/2000/svg"
 width="512.000000pt" height="512.000000pt" viewBox="0 0 512.000000 512.000000"
 preserveAspectRatio="xMidYMid meet">

<g transform="translate(0.000000,512.000000) scale(0.100000,-0.100000)"
fill="#000000" stroke="none">
<path d="M1610 4968 c-55 -38 -74 -72 -74 -131 0 -62 21 -103 71 -137 29 -20
51 -25 124 -28 l90 -4 -3 -752 -3 -751 -26 -55 c-14 -30 -297 -489 -629 -1020
-332 -531 -616 -992 -631 -1025 -32 -70 -59 -192 -59 -264 0 -70 24 -187 53
-258 77 -189 254 -342 453 -393 75 -19 117 -20 1576 -20 1350 0 1506 2 1571
16 233 53 412 218 491 455 52 155 42 326 -28 475 -19 39 -304 505 -634 1035
-330 530 -608 982 -618 1004 -18 38 -19 83 -22 798 l-3 757 63 0 c147 0 218
55 218 168 0 60 -30 109 -80 134 -33 17 -99 18 -951 18 l-916 0 -33 -22z
m1390 -1055 c0 -805 1 -813 49 -925 11 -26 296 -490 632 -1030 362 -580 621
-1006 632 -1038 28 -81 21 -196 -16 -272 -37 -75 -99 -138 -173 -174 l-59 -29
-1479 -3 c-1322 -2 -1486 -1 -1535 13 -193 55 -307 266 -243 448 11 28 295
495 632 1036 337 541 623 1008 636 1037 60 135 57 102 61 932 l4 762 430 0
429 0 0 -757z"/>
<path d="M1892 2100 c-86 -20 -89 -25 -487 -662 l-376 -603 4 -48 c3 -36 11
-56 31 -75 l26 -27 1458 -2 c1144 -2 1462 0 1481 10 38 19 66 64 66 105 0 31
-57 128 -368 627 -237 379 -382 603 -408 627 -27 25 -56 40 -90 47 -58 13
-1284 14 -1337 1z"/>
</g>
</svg>
