<svg xmlns="http://www.w3.org/2000/svg" viewBox="0 0 512 512">

  <defs>
    <!-- Gradient -->
    <linearGradient id="grad" x1="512" y1="0" x2="0" y2="512" gradientUnits="userSpaceOnUse">
      <stop offset="0%" stop-color="#2b8bfe"/>
      <stop offset="100%" stop-color="#60efff"/>
    </linearGradient>

    <!-- Grain -->
    <filter id="grain">
      <feTurbulence baseFrequency="0.6" numOctaves="5" seed="4"/>
    </filter>

    <!-- Mask using your shape -->
    <mask id="shapeMask">
      <g transform="translate(0,512) scale(0.1,-0.1)">
        <path fill="white" d="M2480 5109 c-30 -5 -84 -23 -119 -39 -57 -27 -104 -70 -421 -385
        -326 -324 -362 -357 -425 -387 -94 -43 -168 -44 -244 -3 -90 49 -135 128 -155
        273 -25 172 -77 283 -175 374 -280 257 -737 104 -872 -292 -30 -88 -30 -220 0
        -304 69 -194 229 -313 466 -345 127 -18 172 -37 236 -100 87 -88 102 -183 45
        -306 -23 -50 -76 -108 -381 -415 -321 -323 -357 -363 -386 -424 -66 -142 -60
        -300 17 -429 27 -44 136 -161 380 -407 387 -389 399 -405 398 -530 0 -77 -24
        -130 -80 -180 -54 -47 -107 -67 -222 -85 -198 -29 -291 -78 -394 -206 -72 -90
        -92 -152 -92 -284 0 -95 3 -119 26 -177 92 -233 290 -383 520 -396 142 -7 262
        40 363 143 85 88 125 181 150 347 25 171 87 261 203 294 68 20 121 13 204 -28
        53 -27 117 -86 423 -388 317 -313 367 -359 420 -382 134 -60 270 -57 405 9 70
        33 98 59 416 377 309 309 344 348 375 411 28 58 34 80 33 135 -1 76 -18 116
        -77 177 -51 53 -115 79 -243 97 -115 17 -184 41 -260 92 -215 143 -281 404
        -161 640 38 75 110 165 165 207 229 173 500 168 683 -13 93 -92 139 -191 159
        -341 22 -165 67 -247 165 -294 47 -23 65 -27 122 -23 121 7 132 15 521 402
        356 354 402 407 430 501 33 114 24 223 -28 334 -27 57 -71 104 -388 425 -408
        410 -417 423 -417 551 1 152 110 251 300 270 151 15 279 77 373 180 86 94 122
        187 122 314 -1 255 -190 489 -453 561 -78 21 -230 9 -302 -24 -88 -40 -160
        -100 -209 -175 -56 -85 -82 -158 -97 -268 -16 -123 -42 -187 -99 -244 -84 -84
        -190 -98 -310 -42 -45 21 -120 90 -405 373 -198 196 -370 359 -396 374 -88 51
        -209 72 -309 55z"/>
      </g>
    </mask>
  </defs>

  <!-- Gradient -->
  <g mask="url(#shapeMask)">
    <rect width="512" height="512" fill="url(#grad)"/>
  </g>

  <!-- Grain -->
  <g mask="url(#shapeMask)" style="mix-blend-mode: overlay;">
    <rect width="512" height="512" fill="gray" filter="url(#grain)" opacity="0.35"/>
  </g>

</svg>